<svg version="1.1" width="121" height="61" viewBox="-1 4 121 61" xmlns="http://www.w3.org/2000/svg" xmlns:xlink="http://www.w3.org/1999/xlink">
  <defs>
    <linearGradient id="grad_1" y2="1">
      <stop offset="0" stop-color="#E5E5E5" stop-opacity="1"/>
      <stop offset="1" stop-color="#FFFFFF" stop-opacity="1"/>
    </linearGradient>
    <linearGradient id="grad_2" y2="1">
      <stop offset="0" stop-color="#E5E5E5" stop-opacity="1"/>
      <stop offset="1" stop-color="#FFFFFF" stop-opacity="1"/>
    </linearGradient>
    <linearGradient id="grad_3" x2="1">
      <stop offset="0" stop-color="#FFFFFF" stop-opacity="1"/>
      <stop offset="1" stop-color="#E5E5E5" stop-opacity="1"/>
    </linearGradient>
    <linearGradient id="grad_4" x2="1">
      <stop offset="0" stop-color="#FFFFFF" stop-opacity="1"/>
      <stop offset="1" stop-color="#E5E5E5" stop-opacity="1"/>
    </linearGradient>
    <linearGradient id="grad_5" x2="1">
      <stop offset="0" stop-color="#E5E5E5" stop-opacity="1"/>
      <stop offset="1" stop-color="#FFFFFF" stop-opacity="1"/>
    </linearGradient>
    <linearGradient id="grad_6" x2="1">
      <stop offset="0" stop-color="#E5E5E5" stop-opacity="1"/>
      <stop offset="1" stop-color="#FFFFFF" stop-opacity="1"/>
    </linearGradient>
    <linearGradient id="grad_7" y2="1">
      <stop offset="0" stop-color="#FFFFFF" stop-opacity="1"/>
      <stop offset="1" stop-color="#E5E5E5" stop-opacity="1"/>
    </linearGradient>
    <linearGradient id="grad_8" y2="1">
      <stop offset="0" stop-color="#FFFFFF" stop-opacity="1"/>
      <stop offset="1" stop-color="#E5E5E5" stop-opacity="1"/>
    </linearGradient>
    <linearGradient id="grad_9" x2="1">
      <stop offset="0" stop-color="#FFFFFF" stop-opacity="1"/>
      <stop offset="1" stop-color="#E5E5E5" stop-opacity="1"/>
    </linearGradient>
    <linearGradient id="grad_10" x2="1">
      <stop offset="0" stop-color="#FFFFFF" stop-opacity="1"/>
      <stop offset="1" stop-color="#E5E5E5" stop-opacity="1"/>
    </linearGradient>
  </defs>
  <!-- Exported by Scratch - http://scratch.mit.edu/ -->
  <g id="ID0.19291222700849175">
    <g id="ID0.14247039007022977">
      <path id="ID0.37114523351192474" fill="none" stroke="#7F7F7F" stroke-width="2" stroke-linecap="round" d="M 258.750 221.750 Z " transform="matrix(0.8912066221237183, 0.08781328052282333, -0.09805813431739807, 0.9951807260513306, -167.25, -183.15)"/>
      <path id="ID0.03274270240217447" fill="#000000" stroke="#000000" stroke-width="2" stroke-linecap="round" d="M 257.050 221 L 276.500 212.250 L 276.250 210.750 L 274.250 206 L 270.750 205.750 L 265.250 207 L 256.650 211.950 L 251.750 215.250 L 257.050 221 Z " transform="matrix(0.8912066221237183, 0.08781328052282333, -0.09805813431739807, 0.9951807260513306, -167.25, -183.15)"/>
      <path id="ID0.03397843614220619" fill="none" stroke="#666666" stroke-width="2" stroke-linecap="round" d="M 254.500 211.250 L 257 214.500 L 258 218.500 " transform="matrix(0.8912066221237183, 0.08781328052282333, -0.09805813431739807, 0.9951807260513306, -167.25, -183.15)"/>
      <path id="ID0.07423052238300443" fill="none" stroke="#666666" stroke-width="2" stroke-linecap="round" d="M 265.250 219 L 267.500 216.500 Z " transform="matrix(0.8912066221237183, 0.08781328052282333, -0.09805813431739807, 0.9951807260513306, -167.25, -183.15)"/>
      <path id="ID0.12485550902783871" fill="none" stroke="#666666" stroke-width="2" stroke-linecap="round" d="M 267.500 216.500 L 265.750 209.750 " transform="matrix(0.8912066221237183, 0.08781328052282333, -0.09805813431739807, 0.9951807260513306, -167.25, -183.15)"/>
      <path id="ID0.6831944277510047" fill="none" stroke="#666666" stroke-width="2" stroke-linecap="round" d="M 271.750 205 L 274 206.750 Z " transform="matrix(0.8912066221237183, 0.08781328052282333, -0.09805813431739807, 0.9951807260513306, -167.25, -183.15)"/>
      <path id="ID0.10246130172163248" fill="none" stroke="#666666" stroke-width="2" stroke-linecap="round" d="M 274 206.750 L 275.750 211 " transform="matrix(0.8912066221237183, 0.08781328052282333, -0.09805813431739807, 0.9951807260513306, -167.25, -183.15)"/>
    </g>
    <path id="ID0.1270430744625628" fill="#000000" stroke="#000000" stroke-width="2" stroke-linecap="round" d="M 241.250 181 C 240.868 179.724 240.166 179.463 240.250 179 C 240.387 178.245 241.304 177.875 241.750 177.250 C 242.140 176.704 242.213 175.903 242.750 175.500 C 243.299 175.088 244.070 174.909 244.750 175 C 245.415 175.089 246.046 175.505 246.500 176 C 247.003 176.549 246.995 177.453 247.500 178 C 248.033 178.577 249.310 178.488 249.500 179.250 C 249.674 179.945 248.713 180.453 248.250 181 C 247.794 181.539 247.415 182.262 246.750 182.500 C 246.118 182.726 245.361 182.528 244.750 182.250 C 243.489 181.677 242.373 180.811 241.250 180 Z " transform="matrix(0.6195053458213806, 0.7849923968315125, -0.7849923968315125, 0.6195053458213806, 48.55, -254.05)"/>
    <path id="ID0.3276327238418162" fill="url(#grad_1)" stroke="url(#grad_2)" stroke-width="2" stroke-linecap="round" d="M 235.500 192.750 L 240 196.500 L 241.500 187.750 L 235.250 185 L 230.250 192 L 235.500 192.750 Z " transform="matrix(0.6195053458213806, 0.7849923968315125, -0.7849923968315125, 0.6195053458213806, 55, -253.1)"/>
  </g>
  <path id="ID0.6808496844023466" fill="#CCCCCC" stroke="#CCCCCC" stroke-width="2" stroke-linecap="round" d="M 253.250 171.750 C 254.606 170.925 256.824 171.144 258.750 172 C 259.377 172.279 259.137 173.323 259.250 174 C 259.388 174.825 259.456 175.665 259.500 176.500 C 259.539 177.248 259.452 178.002 259.500 178.750 C 259.618 180.585 259.757 182.427 260 184.250 C 260.091 184.930 260.415 185.569 260.500 186.250 C 260.583 186.911 260.500 187.584 260.500 188.250 C 260.500 188.916 260.458 189.585 260.500 190.250 C 260.542 190.920 260.976 191.618 260.750 192.250 C 260.512 192.915 259.899 193.472 259.250 193.750 C 258.638 194.012 257.905 193.627 257.250 193.750 C 256.551 193.881 255.950 194.376 255.250 194.500 C 254.512 194.630 253.749 194.500 253 194.500 C 252.334 194.500 251.262 195.112 251 194.500 C 250.311 192.891 250.866 190.996 250.750 189.250 C 250.700 188.498 250.725 187.720 250.500 187 C 250.300 186.359 249.749 185.873 249.500 185.250 C 249.245 184.613 249.080 183.932 249 183.250 C 248.912 182.506 248.877 181.739 249 181 C 249.130 180.221 249.587 179.523 249.750 178.750 C 249.922 177.931 249.912 177.082 250 176.250 C 250.079 175.500 249.948 174.691 250.250 174 C 250.558 173.297 251.289 172.864 251.750 172.250 C 252.041 171.862 251.973 171.019 252.500 171 Z " transform="matrix(1, 0, 0, 1, -201.25, -148.25)"/>
  <g id="ID0.9293869719840586">
    <g id="ID0.14247039007022977">
      <path id="ID0.37114523351192474" fill="none" stroke="#7F7F7F" stroke-width="2" stroke-linecap="round" d="M 255.250 223.250 L 258.750 221.750 Z " transform="matrix(0.6211872696876526, -0.5498876571655273, -0.614041268825531, -0.6936590671539307, 16.05, 308.25)"/>
      <path id="ID0.03274270240217447" fill="#000000" stroke="#000000" stroke-width="2" stroke-linecap="round" d="M 258.750 221.750 L 275.950 210.400 L 275.450 210.100 L 274.250 206 L 271.050 206.900 L 266.150 208.150 L 256.900 212.550 L 251.750 215.250 L 256.250 222.500 Z " transform="matrix(0.6211872696876526, -0.5498876571655273, -0.614041268825531, -0.6936590671539307, 16.05, 308.25)"/>
      <path id="ID0.47358463890850544" fill="none" stroke="#7F7F7F" stroke-width="2" stroke-linecap="round" d="M 256.250 222.500 L 260.500 221.500 " transform="matrix(0.6211872696876526, -0.5498876571655273, -0.614041268825531, -0.6936590671539307, 16.05, 308.25)"/>
      <path id="ID0.07423052238300443" fill="none" stroke="#666666" stroke-width="2" stroke-linecap="round" d="M 267.500 216.500 Z " transform="matrix(0.6211872696876526, -0.5498876571655273, -0.614041268825531, -0.6936590671539307, 16.05, 308.25)"/>
      <path id="ID0.12485550902783871" fill="none" stroke="#666666" stroke-width="2" stroke-linecap="round" d="M 267.500 216.500 L 265.750 209.750 " transform="matrix(0.6211872696876526, -0.5498876571655273, -0.614041268825531, -0.6936590671539307, 16.05, 308.25)"/>
      <path id="ID0.6831944277510047" fill="none" stroke="#666666" stroke-width="2" stroke-linecap="round" d="M 271.750 205 L 274 206.750 Z " transform="matrix(0.6211872696876526, -0.5498876571655273, -0.614041268825531, -0.6936590671539307, 16.05, 308.25)"/>
    </g>
    <path id="ID0.1270430744625628" fill="#000000" stroke="#000000" stroke-width="2" stroke-linecap="round" d="M 241.250 181 C 240.868 179.724 240.166 179.463 240.250 179 C 240.387 178.245 241.304 177.875 241.750 177.250 C 242.140 176.704 242.213 175.903 242.750 175.500 C 243.299 175.088 244.070 174.909 244.750 175 C 245.415 175.089 246.046 175.505 246.500 176 C 247.003 176.549 246.995 177.453 247.500 178 C 248.033 178.577 249.310 178.488 249.500 179.250 C 249.674 179.945 248.713 180.453 248.250 181 C 247.794 181.539 247.415 182.262 246.750 182.500 C 246.118 182.726 245.361 182.528 244.750 182.250 C 243.489 181.677 242.373 180.811 241.250 180 Z " transform="matrix(0.03865564242005348, -0.9255891442298889, -0.9255891442298889, -0.03865564242005348, 218.15, 243.9)"/>
    <path id="ID0.5488511263392866" fill="none" stroke="#FFFFFF" stroke-width="2" stroke-linecap="round" d="M 230 164.750 L 233 162.500 Z " transform="matrix(0.622821569442749, -0.685786247253418, 0.685786247253418, 0.622821569442749, -220.55, 77)"/>
    <path id="ID0.7757535208947957" fill="url(#grad_3)" stroke="url(#grad_4)" stroke-width="2" stroke-linecap="round" d="M 239 172.500 L 250.750 178.500 L 254.500 174 L 245.250 165.250 L 242.750 169.750 L 238.750 172.500 Z " transform="matrix(0.622821569442749, -0.685786247253418, 0.685786247253418, 0.622821569442749, -220.55, 77)"/>
    <path id="ID0.7121986239217222" fill="none" stroke="#E5E5E5" stroke-width="2" stroke-linecap="round" d="M 252.750 176.250 L 243 168.500 " transform="matrix(0.622821569442749, -0.685786247253418, 0.685786247253418, 0.622821569442749, -220.55, 77)"/>
  </g>
  <g id="ID0.7123596165329218">
    <g id="ID0.27842102153226733">
      <path id="ID0.9092812556773424" fill="none" stroke="#7F7F7F" stroke-width="2" stroke-linecap="round" d="M 210 201.750 L 211.500 205 Z " transform="matrix(0.5449017882347107, 0.3179958462715149, 0.5129445195198059, -0.4402349293231964, -197.65, 37.65)"/>
      <path id="ID0.07252327119931579" fill="#000000" stroke="#000000" stroke-width="2" stroke-linecap="round" d="M 209.750 198.500 L 211 204.250 L 214 208.500 L 217.250 211.750 L 219.750 214.500 L 223.750 218 L 227 217.500 L 230.500 216.250 L 233.250 213.750 L 233.500 210.500 L 232.250 205.750 L 226 198.750 L 221.750 196 L 216.750 195.250 L 213.500 195.250 L 210.750 196.500 L 209.750 198.500 Z " transform="matrix(0.5449017882347107, 0.3179958462715149, 0.5129445195198059, -0.4402349293231964, -197.65, 37.65)"/>
      <path id="ID0.9874879629351199" fill="none" stroke="#666666" stroke-width="2" stroke-linecap="round" d="M 220 215.250 L 224.750 214.500 L 231 211.500 " transform="matrix(0.5449017882347107, 0.3179958462715149, 0.5129445195198059, -0.4402349293231964, -197.65, 37.65)"/>
      <path id="ID0.7177255218848586" fill="none" stroke="#666666" stroke-width="2" stroke-linecap="round" d="M 226 199 L 227.500 202.500 Z " transform="matrix(0.5449017882347107, 0.3179958462715149, 0.5129445195198059, -0.4402349293231964, -197.65, 37.65)"/>
      <path id="ID0.7820489848963916" fill="none" stroke="#666666" stroke-width="2" stroke-linecap="round" d="M 227.500 202.500 L 226.500 205.500 Z " transform="matrix(0.5449017882347107, 0.3179958462715149, 0.5129445195198059, -0.4402349293231964, -197.65, 37.65)"/>
      <path id="ID0.07331947470083833" fill="none" stroke="#666666" stroke-width="2" stroke-linecap="round" d="M 226.500 205.500 L 223.250 208 L 228.250 204 Z " transform="matrix(0.5449017882347107, 0.3179958462715149, 0.5129445195198059, -0.4402349293231964, -197.65, 37.65)"/>
      <path id="ID0.5798701946623623" fill="none" stroke="#666666" stroke-width="2" stroke-linecap="round" d="M 228.250 204 L 231.500 203.250 Z " transform="matrix(0.5449017882347107, 0.3179958462715149, 0.5129445195198059, -0.4402349293231964, -197.65, 37.65)"/>
      <path id="ID0.7602546201087534" fill="none" stroke="#666666" stroke-width="2" stroke-linecap="round" d="M 231.500 203.250 L 226.250 200.500 " transform="matrix(0.5449017882347107, 0.3179958462715149, 0.5129445195198059, -0.4402349293231964, -197.65, 37.65)"/>
      <path id="ID0.25665075331926346" fill="none" stroke="#666666" stroke-width="2" stroke-linecap="round" d="M 210.750 202 L 212.500 199.250 Z " transform="matrix(0.5449017882347107, 0.3179958462715149, 0.5129445195198059, -0.4402349293231964, -197.65, 37.65)"/>
      <path id="ID0.17844787426292896" fill="none" stroke="#666666" stroke-width="2" stroke-linecap="round" d="M 212.500 199.250 L 217.250 196 " transform="matrix(0.5449017882347107, 0.3179958462715149, 0.5129445195198059, -0.4402349293231964, -197.65, 37.65)"/>
    </g>
    <path id="ID0.7185955042950809" fill="#E5E5E5" stroke="#E5E5E5" stroke-width="2" stroke-linecap="round" d="M 209.500 163 L 213.250 161.250 L 219.500 160.500 L 224.500 162.500 L 231 164.500 L 233 168.500 L 235 168.500 L 238.500 166.500 L 239.500 163.750 L 238 159 L 227.750 154.750 L 218.500 152.750 L 213.250 153.750 L 211 155.750 L 208.750 160.750 Z " transform="matrix(0.6724289655685425, -0.3433689475059509, 0.3433689475059509, 0.6724289655685425, -178.5, -15.3)"/>
    <path id="ID0.07787397596985102" fill="url(#grad_5)" stroke="url(#grad_6)" stroke-width="2" stroke-linecap="round" d="M 233 162.500 L 233 157 L 238.250 159 L 239.500 163.250 L 238.750 166.750 L 234.750 169 L 232.750 169 L 230.250 164.250 Z " transform="matrix(0.6724289655685425, -0.3433689475059509, 0.3433689475059509, 0.6724289655685425, -176.85, -13.85)"/>
  </g>
  <path id="ID0.7799737355671823" fill="#FFFFFF" stroke="#FFFFFF" stroke-width="2" stroke-linecap="round" d="M 220 169 C 220.699 168.033 221.239 167.447 221.500 166.750 C 221.741 166.107 221.795 165.405 222 164.750 C 222.212 164.071 222.538 163.429 222.750 162.750 C 222.955 162.095 222.740 161.209 223.250 160.750 C 223.749 160.301 224.251 160.518 225.250 160.500 C 229.245 160.429 233.254 160.562 237.250 160.500 C 238.584 160.479 239.962 159.899 241.250 160.250 C 241.990 160.452 242.125 161.554 242.750 162 C 244.481 163.237 246.347 164.299 248.250 165.250 C 248.864 165.557 249.569 165.665 250.250 165.750 C 250.911 165.833 251.632 165.503 252.250 165.750 C 252.963 166.035 253.585 166.604 254 167.250 C 254.371 167.827 254.580 168.568 254.500 169.250 C 254.404 170.064 253.955 170.818 253.500 171.500 C 253.108 172.088 252.431 172.440 252 173 C 251.591 173.532 251.249 174.127 251 174.750 C 250.745 175.387 250.755 176.113 250.500 176.750 C 250.251 177.373 249.673 177.851 249.500 178.500 C 249.328 179.144 249.500 179.834 249.500 180.500 C 249.500 181.915 249.331 183.345 249.500 184.750 C 249.585 185.456 249.947 186.106 250.250 186.750 C 250.615 187.526 251.705 188.180 251.500 189 C 251.330 189.680 250.208 189.686 249.500 189.750 C 247.427 189.938 245.323 189.562 243.250 189.750 C 242.542 189.814 241.895 190.199 241.250 190.500 C 240.642 190.784 240.151 191.337 239.500 191.500 C 238.773 191.682 237.996 191.568 237.250 191.500 C 234.329 191.234 231.420 190.772 228.500 190.500 C 227.770 190.432 227.165 190.539 226.500 190.500 C 225.747 190.456 224.992 190.381 224.250 190.250 C 223.574 190.131 222.916 189.917 222.250 189.750 C 221.584 189.583 220.872 189.540 220.250 189.250 C 219.601 188.947 218.840 188.631 218.500 188 C 218.184 187.414 218.542 186.665 218.500 186 C 218.458 185.330 218.278 184.671 218.250 184 C 218.195 182.669 218.148 181.328 218.250 180 C 218.315 179.154 218.561 178.328 218.750 177.500 C 219.227 175.413 219.830 173.349 220.250 171.250 C 220.414 170.430 220.276 169.556 220.500 168.750 Z " transform="matrix(0.9138381481170654, 0, 0, 1, -179.85, -143.75)"/>
  <g id="ID0.40264286333695054">
    <path id="ID0.49205193808302283" fill="none" stroke="#000000" stroke-width="2" stroke-linecap="round" d="M 281.500 220.250 L 283.500 222.750 Z " transform="matrix(0.004549996927380562, -0.6722412109375, 0.6830683350563049, 0.004477876238524914, -129.5, 229.85)"/>
    <path id="ID0.6961653321050107" fill="#E5E5E5" stroke="#E5E5E5" stroke-width="2" stroke-linecap="round" d="M 283.500 222.750 L 287.500 224.750 L 293.750 225.750 L 296.250 225.750 L 302.250 225.750 L 307 224.500 L 309.750 223.500 L 311.500 220.750 L 311.750 218.500 L 306.500 215 L 298 211.250 L 295.750 211.750 L 285 216.750 L 282 220.750 Z " transform="matrix(0.004549996927380562, -0.6722412109375, 0.6830683350563049, 0.004477876238524914, -129.5, 229.85)"/>
    <path id="ID0.8880342552438378" fill="#FFFFFF" stroke="#FFFFFF" stroke-width="2" stroke-linecap="round" d="M 281.750 219.500 L 282.250 212 L 283.750 207 L 283.750 204.250 L 285 196 L 288 192 L 295.250 189.250 L 301.250 189.250 L 307.750 192.750 L 310.500 199.250 L 310.750 205.250 L 312.250 216.250 L 297.750 210.250 L 296.250 210.500 L 281.750 218.500 Z " transform="matrix(0.004549996927380562, -0.6722412109375, 0.6830683350563049, 0.004477876238524914, -129.5, 229.85)"/>
    <path id="ID0.2065710425376892" fill="none" stroke="#000000" stroke-width="2" stroke-linecap="round" d="M 285.500 217.500 L 297 210.500 L 309.500 216.750 " transform="matrix(0.004549996927380562, -0.6722412109375, 0.6830683350563049, 0.004477876238524914, -129.5, 229.85)"/>
    <path id="ID0.48756692185997963" fill="#000000" stroke="none" d="M 291.625 221.750 C 292.280 221.750 292.874 222.002 293.304 222.409 C 293.734 222.817 294 223.379 294 224 C 294 224.621 293.734 225.183 293.304 225.591 C 292.874 225.998 292.280 226.250 291.625 226.250 C 290.970 226.250 290.376 225.998 289.946 225.591 C 289.516 225.183 289.250 224.621 289.250 224 C 289.250 223.379 289.516 222.817 289.946 222.409 C 290.376 222.002 290.970 221.750 291.625 221.750 Z " transform="matrix(0.004549996927380562, -0.6722412109375, 0.6830683350563049, 0.004477876238524914, -129.5, 229.85)"/>
    <path id="ID0.48756692185997963" fill="#000000" stroke="none" d="M 291.625 221.750 C 292.280 221.750 292.874 222.002 293.304 222.409 C 293.734 222.817 294 223.379 294 224 C 294 224.621 293.734 225.183 293.304 225.591 C 292.874 225.998 292.280 226.250 291.625 226.250 C 290.970 226.250 290.376 225.998 289.946 225.591 C 289.516 225.183 289.250 224.621 289.250 224 C 289.250 223.379 289.516 222.817 289.946 222.409 C 290.376 222.002 290.970 221.750 291.625 221.750 Z " transform="matrix(0.004549996927380562, -0.6722412109375, 0.6830683350563049, 0.004477876238524914, -129.05, 222.4)"/>
    <path id="ID0.970818717032671" fill="none" stroke="#000000" stroke-width="2" stroke-linecap="round" d="M 297.500 220.750 C 297.921 225.096 297.133 223.974 297 223 C 296.912 222.355 297.381 220.371 297.500 220.750 Z " transform="matrix(0.004549996927380562, -0.6722412109375, 0.6830683350563049, 0.004477876238524914, -129.5, 229.85)"/>
    <path id="ID0.17145189456641674" fill="none" stroke="#000000" stroke-width="2" stroke-linecap="round" d="M 310.750 214 L 310.500 209.500 " transform="matrix(0.004549996927380562, -0.6722412109375, 0.6830683350563049, 0.004477876238524914, -129.5, 229.85)"/>
    <path id="ID0.757079342380166" fill="none" stroke="#000000" stroke-width="2" stroke-linecap="round" d="M 284 210.250 L 283.500 214 Z " transform="matrix(0.004549996927380562, -0.6722412109375, 0.6830683350563049, 0.004477876238524914, -129.5, 229.85)"/>
    <path id="ID0.08801187295466661" fill="none" stroke="#000000" stroke-width="2" stroke-linecap="round" d="M 284.250 198 L 310 198.250 " transform="matrix(0.004549996927380562, -0.6722412109375, 0.6830683350563049, 0.004477876238524914, -129.5, 229.85)"/>
    <path id="ID0.6463682795874774" fill="none" stroke="#000000" stroke-width="2" stroke-linecap="round" d="M 303.750 201.100 L 304.500 203.100 L 307 202.850 L 308.500 201.250 L 303.750 201.100 Z " transform="matrix(-0.004549996927380562, 0.6722412109375, 0.6830683350563049, 0.004477876238524914, -126.6, -181.1)"/>
    <path id="ID0.6463682795874774" fill="none" stroke="#000000" stroke-width="2" stroke-linecap="round" d="M 303.750 201.100 L 304.500 203.100 L 307 202.850 L 308.500 201.250 L 303.750 201.100 Z " transform="matrix(0.004549996927380562, -0.6722412109375, 0.6830683350563049, 0.004477876238524914, -129.35, 239.8)"/>
  </g>
  <path id="ID0.79099415615201" fill="none" stroke="#E5E5E5" stroke-width="2" stroke-linecap="round" d="M 208.750 160.750 L 209.250 162.500 Z " transform="matrix(1, 0, 0, 1, -174.75, -147.25)"/>
  <g id="ID0.6674290727823973">
    <g id="ID0.27842102153226733">
      <path id="ID0.9092812556773424" fill="none" stroke="#7F7F7F" stroke-width="2" stroke-linecap="round" d="M 210 201.750 L 211.500 205 Z " transform="matrix(0.7537954449653625, -0.3605963885784149, 0.6292924880981445, 0.6368002891540527, -267.75, 0.85)"/>
      <path id="ID0.07252327119931579" fill="#000000" stroke="#000000" stroke-width="2" stroke-linecap="round" d="M 209.750 198.500 L 211 204.250 L 214 208.500 L 217.250 211.750 L 219.750 214.500 L 223.750 218 L 227 217.500 L 230.500 216.250 L 233.250 213.750 L 233.500 210.500 L 232.250 205.750 L 223.350 202.850 L 221.750 196 L 216.750 195.250 L 213.500 195.250 L 210.750 196.500 L 209.750 198.500 Z " transform="matrix(0.7537954449653625, -0.3605963885784149, 0.6292924880981445, 0.6368002891540527, -267.75, 0.85)"/>
      <path id="ID0.9874879629351199" fill="none" stroke="#666666" stroke-width="2" stroke-linecap="round" d="M 220 215.250 L 224.750 214.500 L 231 211.500 " transform="matrix(0.7537954449653625, -0.3605963885784149, 0.6292924880981445, 0.6368002891540527, -267.75, 0.85)"/>
      <path id="ID0.7177255218848586" fill="none" stroke="#666666" stroke-width="2" stroke-linecap="round" d="M 227.500 202.500 Z " transform="matrix(0.7537954449653625, -0.3605963885784149, 0.6292924880981445, 0.6368002891540527, -267.75, 0.85)"/>
      <path id="ID0.7820489848963916" fill="none" stroke="#666666" stroke-width="2" stroke-linecap="round" d="M 227.500 202.500 L 226.500 205.500 Z " transform="matrix(0.7537954449653625, -0.3605963885784149, 0.6292924880981445, 0.6368002891540527, -267.75, 0.85)"/>
      <path id="ID0.07331947470083833" fill="none" stroke="#666666" stroke-width="2" stroke-linecap="round" d="M 226.500 205.500 L 223.250 208 L 228.250 204 Z " transform="matrix(0.7537954449653625, -0.3605963885784149, 0.6292924880981445, 0.6368002891540527, -267.75, 0.85)"/>
      <path id="ID0.5798701946623623" fill="none" stroke="#666666" stroke-width="2" stroke-linecap="round" d="M 228.250 204 L 231.500 203.250 Z " transform="matrix(0.7537954449653625, -0.3605963885784149, 0.6292924880981445, 0.6368002891540527, -267.75, 0.85)"/>
      <path id="ID0.25665075331926346" fill="none" stroke="#666666" stroke-width="2" stroke-linecap="round" d="M 210.750 202 L 212.500 199.250 Z " transform="matrix(0.7537954449653625, -0.3605963885784149, 0.6292924880981445, 0.6368002891540527, -267.75, 0.85)"/>
      <path id="ID0.17844787426292896" fill="none" stroke="#666666" stroke-width="2" stroke-linecap="round" d="M 212.500 199.250 L 217.250 196 " transform="matrix(0.7537954449653625, -0.3605963885784149, 0.6292924880981445, 0.6368002891540527, -267.75, 0.85)"/>
    </g>
    <path id="ID0.4685869007371366" fill="none" stroke="#E5E5E5" stroke-width="2" stroke-linecap="round" d="M 215.250 195 L 222.250 194.250 " transform="matrix(0.9926159381866455, 0.12129974365234375, -0.12129974365234375, 0.9926159381866455, -171.2, -175.5)"/>
    <path id="ID0.5411469885148108" fill="none" stroke="#E5E5E5" stroke-width="2" stroke-linecap="round" d="M 210.250 199.250 L 211.250 202.250 Z " transform="matrix(0.9926159381866455, 0.12129974365234375, -0.12129974365234375, 0.9926159381866455, -171.2, -175.5)"/>
    <path id="ID0.08395055122673512" fill="#E5E5E5" stroke="#E5E5E5" stroke-width="2" stroke-linecap="round" d="M 211.250 202.250 L 215.500 205 L 220 206.500 L 229.500 207.750 L 236.250 207.750 L 240.250 205 L 240 202.250 L 234.500 197.750 L 227.750 195.250 L 228.250 198.750 L 221.250 198 L 210.500 200 Z " transform="matrix(0.9926159381866455, 0.12129974365234375, -0.12129974365234375, 0.9926159381866455, -171.2, -175.5)"/>
    <path id="ID0.2003131634555757" fill="url(#grad_7)" stroke="url(#grad_8)" stroke-width="2" stroke-linecap="round" d="M 227.750 197 L 234.500 200.750 L 239.750 205.750 L 240.500 201.250 L 234.750 197.250 L 226.250 194.250 Z " transform="matrix(0.9926159381866455, 0.12129974365234375, -0.12129974365234375, 0.9926159381866455, -171.2, -175.5)"/>
    <path id="ID0.8104176558554173" fill="none" stroke="#FFFFFF" stroke-width="2" stroke-linecap="round" d="M 226.250 194.250 L 228.250 197 Z " transform="matrix(0.9926159381866455, 0.12129974365234375, -0.12129974365234375, 0.9926159381866455, -171.2, -175.5)"/>
  </g>
  <path id="ID0.39695568615570664" fill="none" stroke="#E5E5E5" stroke-width="2" stroke-linecap="round" d="M 213 165.750 L 219.500 165.250 " transform="matrix(1, 0, 0, 1, -174.75, -147.25)"/>
  <g id="ID0.001751068513840437">
    <path id="ID0.5001030243001878" fill="#666666" stroke="none" d="M 231.250 178.750 L 269.250 178.750 L 269.250 182.750 L 231.250 182.750 L 231.250 178.750 Z " transform="matrix(0.9991174340248108, -0.04200224578380585, 0.04200224578380585, 0.9991174340248108, -178.05, -109.55)"/>
    <path id="ID0.7675469988025725" fill="#000000" stroke="none" d="M 268.500 157.250 L 270.750 157.250 L 270.750 162.750 L 268.500 162.750 L 268.500 157.250 Z " transform="matrix(0.9991174340248108, -0.04200224578380585, 0.04200224578380585, 0.9991174340248108, -215.15, -87.45)"/>
    <path id="ID0.2516346615739167" fill="#000000" stroke="none" d="M 275.250 157.250 L 289.750 157.250 L 289.750 158.500 L 275.250 158.500 L 275.250 157.250 Z " transform="matrix(0.9991174340248108, -0.04200224578380585, 0.04200224578380585, 0.9991174340248108, -215.15, -87.45)"/>
    <path id="ID0.903347207698971" fill="#000000" stroke="none" d="M 275.500 161.750 L 289.750 161.750 L 289.750 163 L 275.500 163 L 275.500 161.750 Z " transform="matrix(0.9991174340248108, -0.04200224578380585, 0.04200224578380585, 0.9991174340248108, -215.15, -87.45)"/>
    <path id="ID0.7458858867175877" fill="#000000" stroke="none" d="M 289.250 158 L 306.750 158 L 306.750 158.500 L 289.250 158.500 L 289.250 158 Z " transform="matrix(0.9991174340248108, -0.04200224578380585, 0.04200224578380585, 0.9991174340248108, -215.15, -87.45)"/>
    <path id="ID0.7458858867175877" fill="#000000" stroke="none" d="M 289.250 158 L 306.750 158 L 306.750 158.500 L 289.250 158.500 L 289.250 158 Z " transform="matrix(0.9991174340248108, -0.04200224578380585, 0.04200224578380585, 0.9991174340248108, -215.15, -83.25)"/>
    <path id="ID0.07933818409219384" fill="#000000" stroke="none" d="M 276.500 159.250 L 286.500 159.250 L 286.500 161.250 L 276.500 161.250 L 276.500 159.250 Z " transform="matrix(0.9991174340248108, -0.04200224578380585, 0.04200224578380585, 0.9991174340248108, -215.15, -87.45)"/>
    <path id="ID0.07934653153643012" fill="#000000" stroke="none" d="M 291.250 160 L 305.750 160 L 305.750 160.750 L 291.250 160.750 L 291.250 160 Z " transform="matrix(0.9991174340248108, -0.04200224578380585, 0.04200224578380585, 0.9991174340248108, -215.15, -87.45)"/>
    <path id="ID0.04481094982475042" fill="#000000" stroke="none" d="M 282.750 153.750 L 287.250 153.750 L 287.250 157.500 L 282.750 157.500 L 282.750 153.750 Z " transform="matrix(0.9991174340248108, -0.04200224578380585, 0.04200224578380585, 0.9991174340248108, -215.15, -87.45)"/>
    <path id="ID0.521635820157826" fill="#000000" stroke="none" d="M 306.750 159.250 L 308 159.250 L 308 161.500 L 306.750 161.500 L 306.750 159.250 Z " transform="matrix(0.9991174340248108, -0.04200224578380585, 0.04200224578380585, 0.9991174340248108, -215.15, -87.45)"/>
  </g>
  <path id="ID0.6520715411752462" fill="url(#grad_9)" stroke="url(#grad_10)" stroke-width="2" stroke-linecap="round" d="M 239.500 184 L 227 188 L 236.500 184 L 236.750 178.750 L 234.750 176.250 L 236.750 174 L 236.500 168.500 L 226 166.250 L 240 168.750 L 237 176.750 L 239.500 184 Z " transform="matrix(1, 0, 0, 1, -198.75, -145.25)"/>
  <path id="ID0.5675142114050686" fill="#E5E5E5" stroke="none" d="M 256.500 169.250 L 262.250 169.250 L 262.250 195.500 L 256.500 195.500 L 256.500 169.250 Z " transform="matrix(1, 0, 0, 1, -198, -147.75)"/>
  <path id="ID0.679336684755981" fill="#E5E5E5" stroke="#E5E5E5" stroke-width="2" stroke-linecap="round" d="M 261.750 173.250 C 261.458 173.374 262.349 175.020 263 176 C 263.474 176.699 264.100 177.350 264.750 178 C 265.200 178.500 265.650 179.050 266.250 179.500 C 266.750 179.900 267.400 180.150 268 180.500 C 268.650 180.850 269.700 180.800 270 181.500 C 270.200 182.100 269.500 182.800 269 183.250 C 268.450 183.700 267.650 183.750 267 184 C 266.250 184.200 265.400 184.100 264.750 184.500 C 263.600 185.050 261.750 186.750 261.750 186.750 C 262 186.750 261.886 180.078 261.750 176.750 C 261.716 175.918 261.738 175.215 261.500 174.500 C 261.229 173.687 260.666 172.999 260.250 172.250 C 260.146 172.063 260.136 172.094 260.250 172.250 Z " transform="matrix(1, 0, 0, 1, -198, -147)"/>
  <path id="ID0.28812118293717504" fill="none" stroke="#000000" stroke-width="2" stroke-linecap="round" d="M 267.250 184.500 C 267.250 184.500 265.508 184.824 264.750 185.250 C 264.134 185.596 263.642 186.162 263.250 186.750 C 263.111 186.958 263.250 187.500 263.250 187.500 " transform="matrix(1, 0, 0, 1, -198, -147)"/>
  <path id="ID0.41788112046197057" fill="none" stroke="#000000" stroke-width="2" stroke-linecap="round" d="M 261.500 172.250 C 261.500 172.250 261.993 173.704 262.500 174.250 C 263.113 174.910 264.047 175.187 264.750 175.750 C 265.302 176.191 265.781 176.722 266.250 177.250 C 266.449 177.474 266.750 178 266.750 178 " transform="matrix(1, 0, 0, 1, -198, -147)"/>
  <path id="ID0.7218066295608878" fill="#FFFFFF" stroke="#FFFFFF" stroke-width="2" stroke-linecap="round" d="M 265.750 176 L 260.750 169.250 L 289 171.500 L 290 175 L 289 181 L 267.250 179.250 L 265.750 176 Z " transform="matrix(0.9989018440246582, -0.04685092717409134, 0.04685092717409134, 0.9989018440246582, -204.4, -135.35)"/>
  <path id="ID0.7218066295608878" fill="#FFFFFF" stroke="#FFFFFF" stroke-width="2" stroke-linecap="round" d="M 265.750 176 L 260.750 169.250 L 289 171.500 L 290 175 L 289 181 L 267.250 179.250 L 265.750 176 Z " transform="matrix(0.9986798763275146, 0.051366303116083145, 0.051366303116083145, -0.9986798763275146, -204.8, 201.75)"/>
  <path id="ID0.2614233624190092" fill="none" stroke="#000000" stroke-width="2" stroke-linecap="round" d="M 291.750 185.250 C 293 186.083 293 186.667 293 187.250 C 293 187.916 293.162 188.604 293 189.250 C 292.819 189.972 292.276 191.250 292 191.250 C 291.724 191.250 291.792 189.920 291.750 189.250 C 291.708 188.585 291.539 187.882 291.750 187.250 C 291.976 186.571 292.584 186.083 293 185.500 C 293.104 185.354 293 185.354 293 185.500 Z " transform="matrix(1, 0, 0, 1, -199.5, -147.75)"/>
  <path id="ID0.8766299458220601" fill="none" stroke="#000000" stroke-width="2" stroke-linecap="round" d="M 290.750 179.500 C 290.750 179.500 290.635 176.328 290.500 174.750 C 290.385 173.413 289.672 171.569 290 170.750 C 290.172 170.319 291.064 171.695 291.500 172.250 C 291.985 172.868 292.346 173.577 292.750 174.250 C 293.095 174.826 293.852 175.337 293.750 176 C 293.643 176.698 292.729 177.680 292.250 177.500 C 291.729 177.305 291.750 176.018 291.750 175.250 C 291.750 174.950 292.250 174.500 292.250 174.500 " transform="matrix(1, 0, 0, 1, -196, -148.5)"/>
  <path id="ID0.11455563455820084" fill="#E5E5E5" stroke="#E5E5E5" stroke-width="2" stroke-linecap="round" d="M 293.500 184 L 293.500 192.250 L 310.750 192.250 L 312.500 190.250 L 312.500 186.750 L 310.250 184 L 293.500 184 Z " transform="matrix(0.998056948184967, 0.06230843812227249, -0.06230843812227249, 0.998056948184967, -186.2, -165.9)"/>
  <path id="ID0.11455563455820084" fill="#E5E5E5" stroke="#E5E5E5" stroke-width="2" stroke-linecap="round" d="M 293.500 184 L 293.500 192.250 L 310.750 192.250 L 312.500 190.250 L 312.500 186.750 L 310.250 184 L 293.500 184 Z " transform="matrix(0.9999300241470337, 0.011829805560410023, -0.011829805560410023, 0.9999300241470337, -193.45, -164.05)"/>
  <path id="ID0.4144948120228946" fill="#FFFFFF" stroke="none" d="M 314.250 182.750 C 314.871 182.750 315.433 183.338 315.841 184.289 C 316.248 185.239 316.500 186.552 316.500 188 C 316.500 189.448 316.248 190.761 315.841 191.711 C 315.433 192.662 314.871 193.250 314.250 193.250 C 313.629 193.250 313.067 192.662 312.659 191.711 C 312.252 190.761 312 189.448 312 188 C 312 186.552 312.252 185.239 312.659 184.289 C 313.067 183.338 313.629 182.750 314.250 182.750 Z " transform="matrix(1, 0, 0, 1, -200, -144.75)"/>
  <path id="ID0.4144948120228946" fill="#FFFFFF" stroke="none" d="M 314.250 182.750 C 314.871 182.750 315.433 183.338 315.841 184.289 C 316.248 185.239 316.500 186.552 316.500 188 C 316.500 189.448 316.248 190.761 315.841 191.711 C 315.433 192.662 314.871 193.250 314.250 193.250 C 313.629 193.250 313.067 192.662 312.659 191.711 C 312.252 190.761 312 189.448 312 188 C 312 186.552 312.252 185.239 312.659 184.289 C 313.067 183.338 313.629 182.750 314.250 182.750 Z " transform="matrix(1, 0, 0, 1, -196.5, -160.5)"/>
  <path id="ID0.20782881556078792" fill="#FF9400" stroke="none" d="M 212.750 155 L 219.250 155 L 219.250 168 L 212.750 168 L 212.750 155 Z " transform="matrix(1, 0, 0, 1, -197, -147)"/>
  <path id="ID0.21652067452669144" fill="#000000" stroke="#000000" stroke-width="2" stroke-linecap="round" d="M 241.200 184.900 C 240.558 185.423 239.094 186.016 237.600 186.500 C 236.823 186.751 236.011 187.095 235.200 187 C 234.505 186.918 233.689 186.613 233.350 186 C 232.972 185.315 233.634 184.379 233.350 183.650 C 233.094 182.992 232.093 182.813 231.850 182.150 C 231.311 180.677 230.831 179.045 231.100 177.500 C 231.218 176.822 232.163 176.438 232.850 176.400 C 233.534 176.362 234.059 177.059 234.700 177.300 C 235.396 177.561 236.115 177.789 236.850 177.900 C 237.674 178.024 238.518 177.954 239.350 178 C 240.017 178.037 240.848 177.710 241.350 178.150 C 241.976 178.699 241.699 179.835 242.200 180.500 C 242.661 181.112 243.757 181.114 244.100 181.800 C 244.400 182.400 244.235 183.250 243.850 183.800 C 243.448 184.374 242.643 184.522 242 184.800 Z " transform="matrix(1, 0, 0, 1, -198, -147)"/>
  <path id="ID0.035747190937399864" fill="none" stroke="#000000" stroke-width="2" stroke-linecap="round" d="M 255 172.300 C 255.873 174.479 257.123 173.568 257.250 173.800 C 257.377 174.032 256.287 174.970 255.750 175.500 C 254.986 176.254 254.119 176.902 253.350 177.650 C 252.868 178.119 252.085 179.221 252 179.150 C 251.915 179.079 252.462 177.800 252.750 177.150 C 253.295 175.917 253.614 174.516 254.500 173.500 C 254.743 173.221 254.782 174.360 255.150 174.400 Z " transform="matrix(1, 0, 0, 1, -198, -147)"/>
  <path id="ID0.5003066868521273" fill="none" stroke="#000000" stroke-width="2" stroke-linecap="round" d="M 275.850 190.400 C 275.850 190.400 273.844 190.931 273.250 190.300 C 272.250 189.238 271.592 187.585 271.850 186.150 C 271.995 185.346 273.335 185.255 274.150 185.300 C 274.968 185.345 275.824 185.772 276.350 186.400 C 276.786 186.920 276.257 187.933 276.750 188.400 C 277.381 188.998 279.051 188.553 279.250 189.150 C 279.426 189.678 278.058 190.783 277.500 190.650 C 277.008 190.533 277.778 188.901 277.150 188.650 C 275.712 188.075 274.048 188.617 272.500 188.650 C 271.716 188.667 270.191 188.963 270.150 188.800 C 270.109 188.637 271.638 188.161 272.250 187.650 C 272.779 187.208 273.062 185.912 273.500 186 C 273.937 186.087 273.444 188.039 274 188 C 274.869 187.939 276.350 185.800 276.350 185.800 " transform="matrix(1, 0, 0, 1, -198, -147)"/>
</svg>