<svg version="1.1" width="94" height="57" viewBox="-1 2 94 57" xmlns="http://www.w3.org/2000/svg" xmlns:xlink="http://www.w3.org/1999/xlink">
  <defs>
    <radialGradient id="grad_1" cx="0.2446" cy="0.42219999999999996" r="0.98202">
      <stop offset="0" stop-color="#B3A443" stop-opacity="1"/>
      <stop offset="1" stop-color="#6CB484" stop-opacity="1"/>
    </radialGradient>
    <linearGradient id="grad_2" x2="1">
      <stop offset="0" stop-color="#B3A443" stop-opacity="1"/>
      <stop offset="1" stop-color="#6CB484" stop-opacity="1"/>
    </linearGradient>
    <radialGradient id="grad_3" cx="0.4" cy="0.107" r="1.1609">
      <stop offset="0" stop-color="#B3A443" stop-opacity="1"/>
      <stop offset="1" stop-color="#6CB484" stop-opacity="1"/>
    </radialGradient>
    <radialGradient id="grad_4" cx="0.4174" cy="0.030299999999999997" r="1.26061">
      <stop offset="0" stop-color="#B3A443" stop-opacity="1"/>
      <stop offset="1" stop-color="#6CB484" stop-opacity="1"/>
    </radialGradient>
    <linearGradient id="grad_5" x2="1">
      <stop offset="0" stop-color="#E5E5E5" stop-opacity="1"/>
      <stop offset="1" stop-color="#FFFFFF" stop-opacity="1"/>
    </linearGradient>
    <radialGradient id="grad_6" cx="0.5245000000000001" cy="0.5" r="0.6818500000000001">
      <stop offset="0" stop-color="#DAD6CF" stop-opacity="1"/>
      <stop offset="1" stop-color="#529E3A" stop-opacity="1"/>
    </radialGradient>
    <linearGradient id="grad_7" x2="1">
      <stop offset="0" stop-color="#000000" stop-opacity="1"/>
      <stop offset="1" stop-color="#666666" stop-opacity="1"/>
    </linearGradient>
  </defs>
  <!-- Exported by Scratch - http://scratch.mit.edu/ -->
  <g id="ID0.27842102153226733" transform="matrix(1, 0, 0, 1, -0.25, 0)">
    <path id="ID0.9092812556773424" fill="none" stroke="#7F7F7F" stroke-width="2" stroke-linecap="round" d="M 210 201.750 L 211.500 205 Z " transform="matrix(0.4130308926105499, 0.7263903021812439, 0.8802074790000916, -0.1635800302028656, -245.35, -114.85)"/>
    <path id="ID0.07252327119931579" fill="url(#grad_1)" stroke="url(#grad_2)" stroke-width="2" stroke-linecap="round" d="M 209.750 198.500 L 211 204.250 L 214 208.500 L 217.250 211.750 L 219.750 214.500 L 223.750 218 L 227 217.500 L 230.500 216.250 L 233.250 213.750 L 233.500 210.500 L 232.250 205.750 L 226 198.750 L 221.750 196 L 216.750 195.250 L 213.500 195.250 L 210.750 196.500 L 209.750 198.500 Z " transform="matrix(0.4130308926105499, 0.7263903021812439, 0.8802074790000916, -0.1635800302028656, -245.35, -114.85)"/>
    <path id="ID0.9874879629351199" fill="none" stroke="#B3A443" stroke-width="2" stroke-linecap="round" d="M 220 215.250 L 224.750 214.500 L 231 211.500 " transform="matrix(0.4130308926105499, 0.7263903021812439, 0.8802074790000916, -0.1635800302028656, -245.35, -114.85)"/>
    <path id="ID0.7177255218848586" fill="none" stroke="#666666" stroke-width="2" stroke-linecap="round" d="M 226 199 L 227.500 202.500 Z " transform="matrix(0.4130308926105499, 0.7263903021812439, 0.8802074790000916, -0.1635800302028656, -245.35, -114.85)"/>
    <path id="ID0.7820489848963916" fill="none" stroke="#666666" stroke-width="2" stroke-linecap="round" d="M 227.500 202.500 L 226.500 205.500 Z " transform="matrix(0.4130308926105499, 0.7263903021812439, 0.8802074790000916, -0.1635800302028656, -245.35, -114.85)"/>
    <path id="ID0.07331947470083833" fill="none" stroke="#B3A443" stroke-width="2" stroke-linecap="round" d="M 226.500 205.500 L 223.250 208 L 228.250 204 Z " transform="matrix(0.4130308926105499, 0.7263903021812439, 0.8802074790000916, -0.1635800302028656, -245.35, -114.85)"/>
    <path id="ID0.5798701946623623" fill="none" stroke="#666666" stroke-width="2" stroke-linecap="round" d="M 228.250 204 L 231.500 203.250 Z " transform="matrix(0.4130308926105499, 0.7263903021812439, 0.8802074790000916, -0.1635800302028656, -245.35, -114.85)"/>
    <path id="ID0.7602546201087534" fill="none" stroke="#B3A443" stroke-width="2" stroke-linecap="round" d="M 231.500 203.250 L 226.250 200.500 " transform="matrix(0.4130308926105499, 0.7263903021812439, 0.8802074790000916, -0.1635800302028656, -245.35, -114.85)"/>
    <path id="ID0.25665075331926346" fill="none" stroke="#666666" stroke-width="2" stroke-linecap="round" d="M 210.750 202 L 212.500 199.250 Z " transform="matrix(0.4130308926105499, 0.7263903021812439, 0.8802074790000916, -0.1635800302028656, -245.35, -114.85)"/>
    <path id="ID0.17844787426292896" fill="none" stroke="#666666" stroke-width="2" stroke-linecap="round" d="M 212.500 199.250 L 217.250 196 " transform="matrix(0.4130308926105499, 0.7263903021812439, 0.8802074790000916, -0.1635800302028656, -245.35, -114.85)"/>
  </g>
  <g id="ID0.5469205393455923" transform="matrix(1, 0, 0, 1, -0.4, 0)">
    <g id="ID0.14247039007022977">
      <path id="ID0.37114523351192474" fill="none" stroke="#7F7F7F" stroke-width="2" stroke-linecap="round" d="M 258.750 221.750 Z " transform="matrix(0.6210399866104126, -0.645189642906189, 0.7204617857933044, 0.6934946775436401, -278.6, 69.35)"/>
      <path id="ID0.03274270240217447" fill="#6CB484" stroke="#6CB484" stroke-width="2" stroke-linecap="round" d="M 257.050 221 L 276.500 212.250 L 276.250 210.750 L 274.250 206 L 270.750 205.750 L 265.250 207 L 256.650 211.950 L 251.750 215.250 L 257.050 221 Z " transform="matrix(0.6210399866104126, -0.645189642906189, 0.7204617857933044, 0.6934946775436401, -278.6, 69.35)"/>
      <path id="ID0.03397843614220619" fill="none" stroke="#666666" stroke-width="2" stroke-linecap="round" d="M 254.500 211.250 L 257 214.500 L 258 218.500 " transform="matrix(0.6210399866104126, -0.645189642906189, 0.7204617857933044, 0.6934946775436401, -278.6, 69.35)"/>
      <path id="ID0.07423052238300443" fill="none" stroke="#666666" stroke-width="2" stroke-linecap="round" d="M 265.250 219 L 267.500 216.500 Z " transform="matrix(0.6210399866104126, -0.645189642906189, 0.7204617857933044, 0.6934946775436401, -278.6, 69.35)"/>
      <path id="ID0.12485550902783871" fill="none" stroke="#B3A443" stroke-width="2" stroke-linecap="round" d="M 267.500 216.500 L 265.750 209.750 " transform="matrix(0.6210399866104126, -0.645189642906189, 0.7204617857933044, 0.6934946775436401, -278.6, 69.35)"/>
      <path id="ID0.6831944277510047" fill="none" stroke="#666666" stroke-width="2" stroke-linecap="round" d="M 271.750 205 L 274 206.750 Z " transform="matrix(0.6210399866104126, -0.645189642906189, 0.7204617857933044, 0.6934946775436401, -278.6, 69.35)"/>
      <path id="ID0.10246130172163248" fill="none" stroke="#666666" stroke-width="2" stroke-linecap="round" d="M 274 206.750 L 275.750 211 " transform="matrix(0.6210399866104126, -0.645189642906189, 0.7204617857933044, 0.6934946775436401, -278.6, 69.35)"/>
    </g>
    <path id="ID0.1270430744625628" fill="#529E3A" stroke="#529E3A" stroke-width="2" stroke-linecap="round" d="M 241.250 181 C 240.868 179.724 240.166 179.463 240.250 179 C 240.387 178.245 241.304 177.875 241.750 177.250 C 242.140 176.704 242.213 175.903 242.750 175.500 C 243.299 175.088 244.070 174.909 244.750 175 C 245.415 175.089 246.046 175.505 246.500 176 C 247.003 176.549 246.995 177.453 247.500 178 C 248.033 178.577 249.310 178.488 249.500 179.250 C 249.674 179.945 248.713 180.453 248.250 181 C 247.794 181.539 247.415 182.262 246.750 182.500 C 246.118 182.726 245.361 182.528 244.750 182.250 C 243.489 181.677 242.373 180.811 241.250 180 Z " transform="matrix(1, 0, 0, 1, -200.5, -144)"/>
    <path id="ID0.8104176558554173" fill="none" stroke="#B3A443" stroke-width="2" stroke-linecap="round" d="M 226.250 194.250 L 228.250 197 Z " transform="matrix(1, 0, 0, 1, -197.75, -149.75)"/>
  </g>
  <g id="ID0.35858932277187705" transform="matrix(1, 0, 0, 1, -0.25, 0)">
    <g id="ID0.14247039007022977">
      <path id="ID0.37114523351192474" fill="none" stroke="#7F7F7F" stroke-width="2" stroke-linecap="round" d="M 255.250 223.250 L 258.750 221.750 Z " transform="matrix(0.8954150676727295, -0.013864511623978615, -0.015482042916119099, -0.9998801946640015, -186.05, 239.25)"/>
      <path id="ID0.03274270240217447" fill="#6CB484" stroke="#6CB484" stroke-width="2" stroke-linecap="round" d="M 258.750 221.750 L 275.950 210.400 L 275.450 210.100 L 274.250 206 L 271.050 206.900 L 266.150 208.150 L 256.900 212.550 L 251.750 215.250 L 256.250 222.500 Z " transform="matrix(0.8954150676727295, -0.013864511623978615, -0.015482042916119099, -0.9998801946640015, -186.05, 239.25)"/>
      <path id="ID0.47358463890850544" fill="none" stroke="#B3A443" stroke-width="2" stroke-linecap="round" d="M 256.250 222.500 L 260.500 221.500 " transform="matrix(0.8954150676727295, -0.013864511623978615, -0.015482042916119099, -0.9998801946640015, -186.05, 239.25)"/>
      <path id="ID0.07423052238300443" fill="none" stroke="#666666" stroke-width="2" stroke-linecap="round" d="M 267.500 216.500 Z " transform="matrix(0.8954150676727295, -0.013864511623978615, -0.015482042916119099, -0.9998801946640015, -186.05, 239.25)"/>
      <path id="ID0.12485550902783871" fill="none" stroke="#B3A443" stroke-width="2" stroke-linecap="round" d="M 267.500 216.500 L 265.750 209.750 " transform="matrix(0.8954150676727295, -0.013864511623978615, -0.015482042916119099, -0.9998801946640015, -186.05, 239.25)"/>
      <path id="ID0.6831944277510047" fill="none" stroke="#666666" stroke-width="2" stroke-linecap="round" d="M 271.750 205 L 274 206.750 Z " transform="matrix(0.8954150676727295, -0.013864511623978615, -0.015482042916119099, -0.9998801946640015, -186.05, 239.25)"/>
    </g>
    <path id="ID0.1270430744625628" fill="#529E3A" stroke="#529E3A" stroke-width="2" stroke-linecap="round" d="M 241.250 181 C 240.868 179.724 240.166 179.463 240.250 179 C 240.387 178.245 241.304 177.875 241.750 177.250 C 242.140 176.704 242.213 175.903 242.750 175.500 C 243.299 175.088 244.070 174.909 244.750 175 C 245.415 175.089 246.046 175.505 246.500 176 C 247.003 176.549 246.995 177.453 247.500 178 C 248.033 178.577 249.310 178.488 249.500 179.250 C 249.674 179.945 248.713 180.453 248.250 181 C 247.794 181.539 247.415 182.262 246.750 182.500 C 246.118 182.726 245.361 182.528 244.750 182.250 C 243.489 181.677 242.373 180.811 241.250 180 Z " transform="matrix(0.848868191242218, -0.5286045670509338, -0.5286045670509338, -0.848868191242218, -53.65, 312.05)"/>
    <path id="ID0.5488511263392866" fill="none" stroke="#529E3A" stroke-width="2" stroke-linecap="round" d="M 230 164.750 L 233 162.500 Z " transform="matrix(0.9904069900512695, 0.1381809562444687, -0.1381809562444687, 0.9904069900512695, -172, -180.65)"/>
  </g>
  <g id="ID0.27842102153226733" transform="matrix(1, 0, 0, 1, -0.3, 0)">
    <path id="ID0.9092812556773424" fill="none" stroke="#7F7F7F" stroke-width="2" stroke-linecap="round" d="M 210 201.750 L 211.500 205 Z " transform="matrix(0.7044891119003296, -0.4493688941001892, 0.7018894553184509, 0.5557650923728943, -274.25, 36.4)"/>
    <path id="ID0.07252327119931579" fill="url(#grad_3)" stroke="url(#grad_4)" stroke-width="2" stroke-linecap="round" d="M 209.750 198.500 L 211 204.250 L 214 208.500 L 217.250 211.750 L 219.750 214.500 L 223.750 218 L 227 217.500 L 230.500 216.250 L 233.250 213.750 L 233.500 210.500 L 232.250 205.750 L 223.350 202.850 L 221.750 196 L 216.750 195.250 L 213.500 195.250 L 210.750 196.500 L 209.750 198.500 Z " transform="matrix(0.7044891119003296, -0.4493688941001892, 0.7018894553184509, 0.5557650923728943, -274.25, 36.4)"/>
    <path id="ID0.9874879629351199" fill="none" stroke="#B3A443" stroke-width="2" stroke-linecap="round" d="M 220 215.250 L 224.750 214.500 L 231 211.500 " transform="matrix(0.7044891119003296, -0.4493688941001892, 0.7018894553184509, 0.5557650923728943, -274.25, 36.4)"/>
    <path id="ID0.7177255218848586" fill="none" stroke="#666666" stroke-width="2" stroke-linecap="round" d="M 227.500 202.500 Z " transform="matrix(0.7044891119003296, -0.4493688941001892, 0.7018894553184509, 0.5557650923728943, -274.25, 36.4)"/>
    <path id="ID0.7820489848963916" fill="none" stroke="#666666" stroke-width="2" stroke-linecap="round" d="M 227.500 202.500 L 226.500 205.500 Z " transform="matrix(0.7044891119003296, -0.4493688941001892, 0.7018894553184509, 0.5557650923728943, -274.25, 36.4)"/>
    <path id="ID0.07331947470083833" fill="none" stroke="#B3A443" stroke-width="2" stroke-linecap="round" d="M 226.500 205.500 L 223.250 208 L 228.250 204 Z " transform="matrix(0.7044891119003296, -0.4493688941001892, 0.7018894553184509, 0.5557650923728943, -274.25, 36.4)"/>
    <path id="ID0.5798701946623623" fill="none" stroke="#B3A443" stroke-width="2" stroke-linecap="round" d="M 228.250 204 L 231.500 203.250 Z " transform="matrix(0.7044891119003296, -0.4493688941001892, 0.7018894553184509, 0.5557650923728943, -274.25, 36.4)"/>
    <path id="ID0.25665075331926346" fill="none" stroke="#B3A443" stroke-width="2" stroke-linecap="round" d="M 210.750 202 L 212.500 199.250 Z " transform="matrix(0.7044891119003296, -0.4493688941001892, 0.7018894553184509, 0.5557650923728943, -274.25, 36.4)"/>
    <path id="ID0.17844787426292896" fill="none" stroke="#B3A443" stroke-width="2" stroke-linecap="round" d="M 212.500 199.250 L 217.250 196 " transform="matrix(0.7044891119003296, -0.4493688941001892, 0.7018894553184509, 0.5557650923728943, -274.25, 36.4)"/>
  </g>
  <g id="ID0.9726154026575387">
    <path id="ID0.1140802027657628" fill="url(#grad_5)" stroke="none" d="M 204 171.750 L 207.500 171.750 L 207.500 191.250 L 204 191.250 L 204 171.750 Z " transform="matrix(1, 0, 0, 1, -197, -149.5)"/>
    <path id="ID0.7656234223395586" fill="#7F7F7F" stroke="#B3A443" stroke-width="2" stroke-linecap="round" d="M 223.750 181.500 L 223.250 170 L 224 156.750 L 225.250 154 L 229.250 153.250 L 238.250 154 L 239.500 156.750 L 241.750 165.750 L 241.250 176.250 L 238.250 186 L 226.250 186.750 L 224 185 Z " transform="matrix(1, 0, 0, 1, -212, -139.45)"/>
    <path id="ID0.053199516609311104" fill="none" stroke="#7F7F7F" stroke-width="2" stroke-linecap="round" d="M 224 185 L 224 183.250 Z " transform="matrix(1, 0, 0, 1, -202, -146.2)"/>
    <path id="ID0.6010205093771219" fill="#B3A443" stroke="#B3A443" stroke-width="2" stroke-linecap="round" d="M 217.750 192.750 L 222 198.950 L 226.500 199.950 L 228.500 198.950 L 231.500 198 L 230 190 L 234.750 187 L 232.750 178.750 L 232.250 171 L 230 160.250 L 226.750 151.250 L 224 148.750 L 220.500 149.450 L 216.750 151.700 L 216 160.750 L 213.500 168.500 L 213.500 183 L 214.750 191 Z " transform="matrix(1, 0, 0, 1, -203.75, -143.7)"/>
    <path id="ID0.3892139554955065" fill="#529E3A" stroke="none" d="M 223 167.750 L 234 167.750 L 234 195.750 L 223 195.750 L 223 167.750 Z " transform="matrix(1, 0, 0, 1, -220.75, -152)"/>
    <path id="ID0.8755844477564096" fill="none" stroke="#B3A443" stroke-width="2" stroke-linecap="round" d="M 214.750 191 L 218.500 194.250 " transform="matrix(1, 0, 0, 1, -202, -146.2)"/>
    <g id="ID0.4468286489136517">
      <path id="ID0.8685327097773552" fill="none" stroke="#7F7F7F" stroke-width="2" stroke-linecap="round" d="M 274.100 205.600 L 272.250 203.350 Z " transform="matrix(1, 0, 0, 0.7906249761581421, -260, -120.9)"/>
      <path id="ID0.5829694462008774" fill="#529E3A" stroke="#3A9C38" stroke-width="2" stroke-linecap="round" d="M 272.250 203.300 L 269.750 197.700 L 268.900 195.200 L 268.500 192.200 L 269.100 188.100 L 271.250 182.300 L 273.600 179.200 L 277.250 177.300 L 280.600 177.100 L 285.250 177.700 L 287.500 179.200 L 289.100 182 L 290.750 185.100 L 291.600 189.800 L 291.900 193.300 L 291 197.500 L 288.500 202.300 L 284.750 205.600 L 279.750 207.100 L 276.500 207.100 L 273.500 204.850 Z " transform="matrix(1, 0, 0, 0.7906249761581421, -260, -120.9)"/>
    </g>
    <path id="ID0.79099415615201" fill="none" stroke="#B3A443" stroke-width="2" stroke-linecap="round" d="M 208.750 160.750 L 209.250 162.500 Z " transform="matrix(1, 0, 0, 1, -197, -149.5)"/>
    <path id="ID0.39695568615570664" fill="none" stroke="#B3A443" stroke-width="2" stroke-linecap="round" d="M 213 165.750 L 219.500 165.250 " transform="matrix(1, 0, 0, 1, -197, -149.5)"/>
    <path id="ID0.4685869007371366" fill="none" stroke="#B3A443" stroke-width="2" stroke-linecap="round" d="M 215.250 195 L 222.250 194.250 " transform="matrix(1, 0, 0, 1, -198.5, -149)"/>
    <path id="ID0.5411469885148108" fill="none" stroke="#E5E5E5" stroke-width="2" stroke-linecap="round" d="M 210.250 199.250 L 211.250 202.250 Z " transform="matrix(1, 0, 0, 1, -198.5, -149)"/>
    <path id="ID0.2593406834639609" fill="#009933" stroke="none" d="M 221 165.250 L 223 165.250 L 223 193 L 221 193 L 221 165.250 Z " transform="matrix(1, 0, 0, 1, -220.25, -149.25)"/>
    <path id="ID0.8448817078024149" fill="none" stroke="#000000" stroke-width="2" stroke-linecap="round" d="M 228.250 168 L 228.550 168.300 " transform="matrix(1, 0, 0, 1, -220.25, -149.25)"/>
    <path id="ID0.931194017175585" fill="none" stroke="#000000" stroke-width="2" stroke-linecap="round" d="M 226.250 166.750 L 226.550 167.050 " transform="matrix(1, 0, 0, 1, -220.25, -149.25)"/>
    <path id="ID0.12241811165586114" fill="url(#grad_6)" stroke="none" d="M 242.375 173.500 C 244.479 173.500 246.385 174.396 247.765 175.845 C 249.146 177.293 250 179.293 250 181.500 C 250 183.707 249.146 185.707 247.765 187.155 C 246.385 188.604 244.479 189.500 242.375 189.500 C 240.271 189.500 238.365 188.604 236.985 187.155 C 235.604 185.707 234.750 183.707 234.750 181.500 C 234.750 179.293 235.604 177.293 236.985 175.845 C 238.365 174.396 240.271 173.500 242.375 173.500 Z " transform="matrix(1, 0, 0, 1, -221.75, -150.5)"/>
  </g>
  <g id="ID0.8223371678031981" transform="matrix(0.9787036776542664, 0, 0, 1, 0.65, 0)">
    <path id="ID0.3929216577671468" fill="#666666" stroke="none" d="M 221 227.500 L 254 227.500 L 254 231 L 221 231 L 221 227.500 Z " transform="matrix(1, 0, 0, 1, -183, -196)"/>
    <path id="ID0.6158645171672106" fill="#7F7F7F" stroke="none" d="M 226 228 L 240.500 228 L 240.500 230.250 L 226 230.250 L 226 228 Z " transform="matrix(1, 0, 0, 1, -183, -196)"/>
    <path id="ID0.6918935501016676" fill="#7F7F7F" stroke="none" d="M 254.250 229 L 267.750 229 L 267.750 230 L 254.250 230 L 254.250 229 Z " transform="matrix(1, 0, 0, 1, -183.5, -196.25)"/>
    <path id="ID0.2535178721882403" fill="url(#grad_7)" stroke="none" d="M 215.250 227.250 L 224 227.250 L 224 231.250 L 215.250 231.250 L 215.250 227.250 Z " transform="matrix(1, 0, 0, 1, -183, -196)"/>
    <path id="ID0.5137050389312208" fill="#000000" stroke="none" d="M 225.500 230.750 L 252.500 230.750 L 252.500 231.250 L 225.500 231.250 L 225.500 230.750 Z " transform="matrix(1, 0, 0, 1, -183, -196)"/>
    <path id="ID0.3690052963793278" fill="#000000" stroke="none" d="M 225.500 227.250 L 252.250 227.250 L 252.250 227.750 L 225.500 227.750 L 225.500 227.250 Z " transform="matrix(1, 0, 0, 1, -183, -196)"/>
    <path id="ID0.7939222734421492" fill="#000000" stroke="none" d="M 266.250 228.500 L 269.250 228.500 L 269.250 230 L 266.250 230 L 266.250 228.500 Z " transform="matrix(1, 0, 0, 1, -183, -196)"/>
    <path id="ID0.15209347568452358" fill="#000000" stroke="none" d="M 265.250 229 L 267.500 229 L 267.500 229.500 L 265.250 229.500 L 265.250 229 Z " transform="matrix(1, 0, 0, 1, -183, -196)"/>
  </g>
  <path id="ID0.4203957738354802" fill="#FF9999" stroke="#FF0000" stroke-width="2" stroke-linecap="round" d="M 307 181.750 C 305.791 181.201 307.379 180.386 308.600 180.250 C 309.279 180.175 309.414 181.398 310 181.750 C 310.786 182.221 312.080 181.896 312.600 182.650 C 312.995 183.222 312.145 183.970 312 184.650 C 311.860 185.307 312.241 186.192 311.750 186.650 C 311.263 187.105 310.248 187.193 309.750 186.750 C 309.224 186.282 309.919 185.216 309.500 184.650 C 309.091 184.099 308.189 184.203 307.600 183.850 C 306.846 183.398 305.291 183.001 305.500 182.250 Z " transform="matrix(1, 0, 0, 1, -221, -149)"/>
</svg>