<svg version="1.1" width="124" height="66" viewBox="-1 4 124 66" xmlns="http://www.w3.org/2000/svg" xmlns:xlink="http://www.w3.org/1999/xlink">
  <defs>
    <radialGradient id="grad_1" cx="0.2446" cy="0.42219999999999996" r="0.98202">
      <stop offset="0" stop-color="#B3A443" stop-opacity="1"/>
      <stop offset="1" stop-color="#6CB484" stop-opacity="1"/>
    </radialGradient>
    <linearGradient id="grad_2" x2="1">
      <stop offset="0" stop-color="#B3A443" stop-opacity="1"/>
      <stop offset="1" stop-color="#6CB484" stop-opacity="1"/>
    </linearGradient>
    <radialGradient id="grad_3" cx="0.4" cy="0.107" r="1.1609">
      <stop offset="0" stop-color="#B3A443" stop-opacity="1"/>
      <stop offset="1" stop-color="#6CB484" stop-opacity="1"/>
    </radialGradient>
    <radialGradient id="grad_4" cx="0.4174" cy="0.030299999999999997" r="1.26061">
      <stop offset="0" stop-color="#B3A443" stop-opacity="1"/>
      <stop offset="1" stop-color="#6CB484" stop-opacity="1"/>
    </radialGradient>
    <linearGradient id="grad_5" x2="1">
      <stop offset="0" stop-color="#E5E5E5" stop-opacity="1"/>
      <stop offset="1" stop-color="#FFFFFF" stop-opacity="1"/>
    </linearGradient>
    <linearGradient id="grad_6" x2="1">
      <stop offset="0" stop-color="#000000" stop-opacity="1"/>
      <stop offset="1" stop-color="#666666" stop-opacity="1"/>
    </linearGradient>
  </defs>
  <!-- Exported by Scratch - http://scratch.mit.edu/ -->
  <g id="ID0.27842102153226733">
    <path id="ID0.9092812556773424" fill="none" stroke="#7F7F7F" stroke-width="2" stroke-linecap="round" d="M 210 201.750 L 211.500 205 Z " transform="matrix(0.7938109636306763, 0.26096272468566895, 0.5424426198005676, -0.712235689163208, -265.75, 103.35)"/>
    <path id="ID0.07252327119931579" fill="url(#grad_1)" stroke="url(#grad_2)" stroke-width="2" stroke-linecap="round" d="M 209.750 198.500 L 211 204.250 L 214 208.500 L 217.250 211.750 L 219.750 214.500 L 223.750 218 L 227 217.500 L 230.500 216.250 L 233.250 213.750 L 233.500 210.500 L 232.250 205.750 L 226 198.750 L 221.750 196 L 216.750 195.250 L 213.500 195.250 L 210.750 196.500 L 209.750 198.500 Z " transform="matrix(0.7938109636306763, 0.26096272468566895, 0.5424426198005676, -0.712235689163208, -265.75, 103.35)"/>
    <path id="ID0.9874879629351199" fill="none" stroke="#B3A443" stroke-width="2" stroke-linecap="round" d="M 220 215.250 L 224.750 214.500 L 231 211.500 " transform="matrix(0.7938109636306763, 0.26096272468566895, 0.5424426198005676, -0.712235689163208, -265.75, 103.35)"/>
    <path id="ID0.7177255218848586" fill="none" stroke="#666666" stroke-width="2" stroke-linecap="round" d="M 226 199 L 227.500 202.500 Z " transform="matrix(0.7938109636306763, 0.26096272468566895, 0.5424426198005676, -0.712235689163208, -265.75, 103.35)"/>
    <path id="ID0.7820489848963916" fill="none" stroke="#666666" stroke-width="2" stroke-linecap="round" d="M 227.500 202.500 L 226.500 205.500 Z " transform="matrix(0.7938109636306763, 0.26096272468566895, 0.5424426198005676, -0.712235689163208, -265.75, 103.35)"/>
    <path id="ID0.07331947470083833" fill="none" stroke="#B3A443" stroke-width="2" stroke-linecap="round" d="M 226.500 205.500 L 223.250 208 L 228.250 204 Z " transform="matrix(0.7938109636306763, 0.26096272468566895, 0.5424426198005676, -0.712235689163208, -265.75, 103.35)"/>
    <path id="ID0.5798701946623623" fill="none" stroke="#666666" stroke-width="2" stroke-linecap="round" d="M 228.250 204 L 231.500 203.250 Z " transform="matrix(0.7938109636306763, 0.26096272468566895, 0.5424426198005676, -0.712235689163208, -265.75, 103.35)"/>
    <path id="ID0.7602546201087534" fill="none" stroke="#B3A443" stroke-width="2" stroke-linecap="round" d="M 231.500 203.250 L 226.250 200.500 " transform="matrix(0.7938109636306763, 0.26096272468566895, 0.5424426198005676, -0.712235689163208, -265.75, 103.35)"/>
    <path id="ID0.25665075331926346" fill="none" stroke="#666666" stroke-width="2" stroke-linecap="round" d="M 210.750 202 L 212.500 199.250 Z " transform="matrix(0.7938109636306763, 0.26096272468566895, 0.5424426198005676, -0.712235689163208, -265.75, 103.35)"/>
    <path id="ID0.17844787426292896" fill="none" stroke="#666666" stroke-width="2" stroke-linecap="round" d="M 212.500 199.250 L 217.250 196 " transform="matrix(0.7938109636306763, 0.26096272468566895, 0.5424426198005676, -0.712235689163208, -265.75, 103.35)"/>
  </g>
  <g id="ID0.5469205393455923">
    <g id="ID0.14247039007022977">
      <path id="ID0.37114523351192474" fill="none" stroke="#7F7F7F" stroke-width="2" stroke-linecap="round" d="M 258.750 221.750 Z " transform="matrix(0.8579962849617004, -0.25652047991752625, 0.2864478826522827, 0.9580958485603333, -248.05, -79.1)"/>
      <path id="ID0.03274270240217447" fill="#6CB484" stroke="#6CB484" stroke-width="2" stroke-linecap="round" d="M 257.050 221 L 276.500 212.250 L 276.250 210.750 L 274.250 206 L 270.750 205.750 L 265.250 207 L 256.650 211.950 L 251.750 215.250 L 257.050 221 Z " transform="matrix(0.8579962849617004, -0.25652047991752625, 0.2864478826522827, 0.9580958485603333, -248.05, -79.1)"/>
      <path id="ID0.03397843614220619" fill="none" stroke="#666666" stroke-width="2" stroke-linecap="round" d="M 254.500 211.250 L 257 214.500 L 258 218.500 " transform="matrix(0.8579962849617004, -0.25652047991752625, 0.2864478826522827, 0.9580958485603333, -248.05, -79.1)"/>
      <path id="ID0.07423052238300443" fill="none" stroke="#666666" stroke-width="2" stroke-linecap="round" d="M 265.250 219 L 267.500 216.500 Z " transform="matrix(0.8579962849617004, -0.25652047991752625, 0.2864478826522827, 0.9580958485603333, -248.05, -79.1)"/>
      <path id="ID0.12485550902783871" fill="none" stroke="#B3A443" stroke-width="2" stroke-linecap="round" d="M 267.500 216.500 L 265.750 209.750 " transform="matrix(0.8579962849617004, -0.25652047991752625, 0.2864478826522827, 0.9580958485603333, -248.05, -79.1)"/>
      <path id="ID0.6831944277510047" fill="none" stroke="#666666" stroke-width="2" stroke-linecap="round" d="M 271.750 205 L 274 206.750 Z " transform="matrix(0.8579962849617004, -0.25652047991752625, 0.2864478826522827, 0.9580958485603333, -248.05, -79.1)"/>
      <path id="ID0.10246130172163248" fill="none" stroke="#666666" stroke-width="2" stroke-linecap="round" d="M 274 206.750 L 275.750 211 " transform="matrix(0.8579962849617004, -0.25652047991752625, 0.2864478826522827, 0.9580958485603333, -248.05, -79.1)"/>
    </g>
    <path id="ID0.1270430744625628" fill="#529E3A" stroke="#529E3A" stroke-width="2" stroke-linecap="round" d="M 241.250 181 C 240.868 179.724 240.166 179.463 240.250 179 C 240.387 178.245 241.304 177.875 241.750 177.250 C 242.140 176.704 242.213 175.903 242.750 175.500 C 243.299 175.088 244.070 174.909 244.750 175 C 245.415 175.089 246.046 175.505 246.500 176 C 247.003 176.549 246.995 177.453 247.500 178 C 248.033 178.577 249.310 178.488 249.500 179.250 C 249.674 179.945 248.713 180.453 248.250 181 C 247.794 181.539 247.415 182.262 246.750 182.500 C 246.118 182.726 245.361 182.528 244.750 182.250 C 243.489 181.677 242.373 180.811 241.250 180 Z " transform="matrix(0.8708090782165527, 0.49162134528160095, -0.49162134528160095, 0.8708090782165527, -75.15, -226.5)"/>
    <path id="ID0.8104176558554173" fill="none" stroke="#B3A443" stroke-width="2" stroke-linecap="round" d="M 226.250 194.250 L 228.250 197 Z " transform="matrix(0.8708090782165527, 0.49162134528160095, -0.49162134528160095, 0.8708090782165527, -69.9, -230.15)"/>
  </g>
  <g id="ID0.35858932277187705">
    <g id="ID0.14247039007022977">
      <path id="ID0.37114523351192474" fill="none" stroke="#7F7F7F" stroke-width="2" stroke-linecap="round" d="M 255.250 223.250 L 258.750 221.750 Z " transform="matrix(0.8217901587486267, -0.355838805437088, -0.3973533511161804, -0.9176657199859619, -90.2, 304.55)"/>
      <path id="ID0.03274270240217447" fill="#6CB484" stroke="#6CB484" stroke-width="2" stroke-linecap="round" d="M 258.750 221.750 L 275.950 210.400 L 275.450 210.100 L 274.250 206 L 271.050 206.900 L 266.150 208.150 L 256.900 212.550 L 251.750 215.250 L 256.250 222.500 Z " transform="matrix(0.8217901587486267, -0.355838805437088, -0.3973533511161804, -0.9176657199859619, -90.2, 304.55)"/>
      <path id="ID0.47358463890850544" fill="none" stroke="#B3A443" stroke-width="2" stroke-linecap="round" d="M 256.250 222.500 L 260.500 221.500 " transform="matrix(0.8217901587486267, -0.355838805437088, -0.3973533511161804, -0.9176657199859619, -90.2, 304.55)"/>
      <path id="ID0.07423052238300443" fill="none" stroke="#666666" stroke-width="2" stroke-linecap="round" d="M 267.500 216.500 Z " transform="matrix(0.8217901587486267, -0.355838805437088, -0.3973533511161804, -0.9176657199859619, -90.2, 304.55)"/>
      <path id="ID0.12485550902783871" fill="none" stroke="#B3A443" stroke-width="2" stroke-linecap="round" d="M 267.500 216.500 L 265.750 209.750 " transform="matrix(0.8217901587486267, -0.355838805437088, -0.3973533511161804, -0.9176657199859619, -90.2, 304.55)"/>
      <path id="ID0.6831944277510047" fill="none" stroke="#666666" stroke-width="2" stroke-linecap="round" d="M 271.750 205 L 274 206.750 Z " transform="matrix(0.8217901587486267, -0.355838805437088, -0.3973533511161804, -0.9176657199859619, -90.2, 304.55)"/>
    </g>
    <path id="ID0.1270430744625628" fill="#529E3A" stroke="#529E3A" stroke-width="2" stroke-linecap="round" d="M 241.250 181 C 240.868 179.724 240.166 179.463 240.250 179 C 240.387 178.245 241.304 177.875 241.750 177.250 C 242.140 176.704 242.213 175.903 242.750 175.500 C 243.299 175.088 244.070 174.909 244.750 175 C 245.415 175.089 246.046 175.505 246.500 176 C 247.003 176.549 246.995 177.453 247.500 178 C 248.033 178.577 249.310 178.488 249.500 179.250 C 249.674 179.945 248.713 180.453 248.250 181 C 247.794 181.539 247.415 182.262 246.750 182.500 C 246.118 182.726 245.361 182.528 244.750 182.250 C 243.489 181.677 242.373 180.811 241.250 180 Z " transform="matrix(0.5815984010696411, -0.813476026058197, -0.813476026058197, -0.5815984010696411, 59.9, 321.05)"/>
    <path id="ID0.5488511263392866" fill="none" stroke="#529E3A" stroke-width="2" stroke-linecap="round" d="M 230 164.750 L 233 162.500 Z " transform="matrix(0.9677833318710327, -0.2517845034599304, 0.2517845034599304, 0.9677833318710327, -238.1, -88.65)"/>
  </g>
  <g id="ID0.27842102153226733">
    <path id="ID0.9092812556773424" fill="none" stroke="#7F7F7F" stroke-width="2" stroke-linecap="round" d="M 210 201.750 L 211.500 205 Z " transform="matrix(0.8317273259162903, -0.08041743189096451, 0.37293723225593567, 0.8139050602912903, -236.7, -91.45)"/>
    <path id="ID0.07252327119931579" fill="url(#grad_3)" stroke="url(#grad_4)" stroke-width="2" stroke-linecap="round" d="M 209.750 198.500 L 211 204.250 L 214 208.500 L 217.250 211.750 L 219.750 214.500 L 223.750 218 L 227 217.500 L 230.500 216.250 L 233.250 213.750 L 233.500 210.500 L 232.250 205.750 L 223.350 202.850 L 221.750 196 L 216.750 195.250 L 213.500 195.250 L 210.750 196.500 L 209.750 198.500 Z " transform="matrix(0.8317273259162903, -0.08041743189096451, 0.37293723225593567, 0.8139050602912903, -236.7, -91.45)"/>
    <path id="ID0.9874879629351199" fill="none" stroke="#B3A443" stroke-width="2" stroke-linecap="round" d="M 220 215.250 L 224.750 214.500 L 231 211.500 " transform="matrix(0.8317273259162903, -0.08041743189096451, 0.37293723225593567, 0.8139050602912903, -236.7, -91.45)"/>
    <path id="ID0.7177255218848586" fill="none" stroke="#666666" stroke-width="2" stroke-linecap="round" d="M 227.500 202.500 Z " transform="matrix(0.8317273259162903, -0.08041743189096451, 0.37293723225593567, 0.8139050602912903, -236.7, -91.45)"/>
    <path id="ID0.7820489848963916" fill="none" stroke="#666666" stroke-width="2" stroke-linecap="round" d="M 227.500 202.500 L 226.500 205.500 Z " transform="matrix(0.8317273259162903, -0.08041743189096451, 0.37293723225593567, 0.8139050602912903, -236.7, -91.45)"/>
    <path id="ID0.07331947470083833" fill="none" stroke="#B3A443" stroke-width="2" stroke-linecap="round" d="M 226.500 205.500 L 223.250 208 L 228.250 204 Z " transform="matrix(0.8317273259162903, -0.08041743189096451, 0.37293723225593567, 0.8139050602912903, -236.7, -91.45)"/>
    <path id="ID0.5798701946623623" fill="none" stroke="#B3A443" stroke-width="2" stroke-linecap="round" d="M 228.250 204 L 231.500 203.250 Z " transform="matrix(0.8317273259162903, -0.08041743189096451, 0.37293723225593567, 0.8139050602912903, -236.7, -91.45)"/>
    <path id="ID0.25665075331926346" fill="none" stroke="#B3A443" stroke-width="2" stroke-linecap="round" d="M 210.750 202 L 212.500 199.250 Z " transform="matrix(0.8317273259162903, -0.08041743189096451, 0.37293723225593567, 0.8139050602912903, -236.7, -91.45)"/>
    <path id="ID0.17844787426292896" fill="none" stroke="#B3A443" stroke-width="2" stroke-linecap="round" d="M 212.500 199.250 L 217.250 196 " transform="matrix(0.8317273259162903, -0.08041743189096451, 0.37293723225593567, 0.8139050602912903, -236.7, -91.45)"/>
  </g>
  <path id="ID0.1140802027657628" fill="url(#grad_5)" stroke="none" d="M 204 171.750 L 207.500 171.750 L 207.500 191.250 L 204 191.250 L 204 171.750 Z " transform="matrix(1, 0, 0, 1, -198.5, -143.25)"/>
  <path id="ID0.7656234223395586" fill="#7F7F7F" stroke="#B3A443" stroke-width="2" stroke-linecap="round" d="M 223.750 181.500 L 223.250 170 L 224 156.750 L 225.250 154 L 229.250 153.250 L 238.250 154 L 239.500 156.750 L 241.750 165.750 L 241.250 176.250 L 238.250 186 L 226.250 186.750 L 224 185 Z " transform="matrix(1, 0, 0, 1, -218.75, -133.2)"/>
  <path id="ID0.053199516609311104" fill="none" stroke="#7F7F7F" stroke-width="2" stroke-linecap="round" d="M 224 185 L 224 183.250 Z " transform="matrix(1, 0, 0, 1, -203.5, -139.95)"/>
  <path id="ID0.6010205093771219" fill="#B3A443" stroke="#B3A443" stroke-width="2" stroke-linecap="round" d="M 217.750 192.750 L 222 198.950 L 226.500 199.950 L 228.500 198.950 L 231.500 198 L 230 190 L 234.750 187 L 232.750 178.750 L 232.250 171 L 230 160.250 L 226.750 151.250 L 224 148.750 L 220.500 149.450 L 216.750 151.700 L 216 160.750 L 213.500 168.500 L 213.500 183 L 214.750 191 Z " transform="matrix(1, 0, 0, 1, -210, -137.45)"/>
  <path id="ID0.8755844477564096" fill="none" stroke="#B3A443" stroke-width="2" stroke-linecap="round" d="M 214.750 191 L 218.500 194.250 " transform="matrix(1, 0, 0, 1, -203.5, -139.95)"/>
  <path id="ID0.79099415615201" fill="none" stroke="#B3A443" stroke-width="2" stroke-linecap="round" d="M 208.750 160.750 L 209.250 162.500 Z " transform="matrix(1, 0, 0, 1, -198.5, -143.25)"/>
  <path id="ID0.07488185213878751" fill="#529E3A" stroke="#529E3A" stroke-width="2" stroke-linecap="round" d="M 254.500 183.250 C 256.772 182.603 259.843 183.297 262.750 183.500 C 263.477 183.551 264.140 183.884 264.750 184.250 C 265.408 184.645 265.831 185.374 266.500 185.750 C 267.188 186.137 268.044 186.147 268.750 186.500 C 269.391 186.820 270.197 187.101 270.500 187.750 C 270.852 188.504 270.630 189.428 270.500 190.250 C 270.377 191.030 270.308 191.942 269.750 192.500 C 268.720 193.530 267.376 194.274 266 194.750 C 265.135 195.050 264.165 194.782 263.250 194.750 C 261.750 194.698 260.233 194.728 258.750 194.500 C 258.047 194.392 257.314 194.184 256.750 193.750 C 256.182 193.313 255.966 192.544 255.500 192 C 254.964 191.374 254.138 190.977 253.750 190.250 C 253.434 189.658 253.417 188.916 253.500 188.250 C 253.588 187.544 254.176 186.957 254.250 186.250 C 254.346 185.336 253.125 183.783 254 183.500 Z " transform="matrix(1, 0, 0, 1, -214, -143)"/>
  <path id="ID0.3075908776372671" fill="#529E3A" stroke="#529E3A" stroke-width="2" stroke-linecap="round" d="M 252.750 171.750 C 254.538 171.621 255.923 171.704 257.250 171.500 C 258.089 171.371 258.921 171.184 259.750 171 C 260.420 170.851 261.065 170.543 261.750 170.500 C 262.420 170.458 263.122 170.514 263.750 170.750 C 265.144 171.273 266.559 171.856 267.750 172.750 C 268.287 173.153 268.501 173.877 268.750 174.500 C 269.005 175.137 269.427 175.837 269.250 176.500 C 269.052 177.242 268.449 177.932 267.750 178.250 C 266.516 178.811 265.095 178.832 263.750 179 C 263.089 179.083 262.406 178.884 261.750 179 C 260.972 179.137 260.279 179.620 259.500 179.750 C 258.761 179.873 257.977 179.932 257.250 179.750 C 256.599 179.587 256.012 179.184 255.500 178.750 C 254.914 178.254 254.376 177.669 254 177 C 253.613 176.312 253.431 175.519 253.250 174.750 C 253.096 174.097 253 173.421 253 172.750 C 253 172.487 252.928 172.095 253.250 172 Z " transform="matrix(1, 0, 0, 1, -214, -143)"/>
  <path id="ID0.4685869007371366" fill="none" stroke="#B3A443" stroke-width="2" stroke-linecap="round" d="M 215.250 195 L 222.250 194.250 " transform="matrix(1, 0, 0, 1, -200, -142.75)"/>
  <path id="ID0.5411469885148108" fill="none" stroke="#E5E5E5" stroke-width="2" stroke-linecap="round" d="M 210.250 199.250 L 211.250 202.250 Z " transform="matrix(1, 0, 0, 1, -200, -142.75)"/>
  <path id="ID0.7159544094465673" fill="#B3A443" stroke="#B3A443" stroke-width="2" stroke-linecap="round" d="M 234.250 164.500 C 234.167 165.500 236.579 165.789 237.500 166.250 C 238.132 166.566 238.500 167.250 239 167.750 C 239.500 168.250 239.981 168.771 240.500 169.250 C 241.064 169.771 241.611 170.324 242.250 170.750 C 242.870 171.163 243.790 171.164 244.250 171.750 C 244.787 172.433 244.821 173.399 245 174.250 C 245.155 174.988 245.132 175.755 245.250 176.500 C 245.382 177.339 245.656 178.156 245.750 179 C 245.824 179.662 245.722 180.335 245.750 181 C 245.806 182.333 245.894 183.670 246 185 C 246.060 185.751 246.423 186.516 246.250 187.250 C 246.070 188.015 245.423 188.588 245 189.250 C 244.091 190.670 243.506 192.376 242.250 193.500 C 241.754 193.944 240.916 193.500 240.250 193.500 C 239.584 193.500 238.692 193.998 238.250 193.500 C 237.752 192.940 238.250 191.999 238.250 191.250 C 238.250 189.668 238.407 188.074 238.250 186.500 C 238.156 185.556 237.844 184.635 237.500 183.750 C 237.257 183.124 236.670 182.698 236.500 182 C 235.819 179.208 235.406 176.345 235 173.500 C 234.898 172.789 234.922 172.161 235 171.500 C 235.090 170.738 235.436 170.015 235.500 169.250 C 235.604 168.006 235.822 166.707 235.500 165.500 L 234.500 165.500 Z " transform="matrix(1.9039145708084106, 0, 0, 1, -428.85, -142.75)"/>
  <path id="ID0.8448817078024149" fill="none" stroke="#000000" stroke-width="2" stroke-linecap="round" d="M 228.250 168 L 228.550 168.300 " transform="matrix(1, 0, 0, 1, -221.75, -143)"/>
  <path id="ID0.931194017175585" fill="none" stroke="#000000" stroke-width="2" stroke-linecap="round" d="M 226.250 166.750 L 226.550 167.050 " transform="matrix(1, 0, 0, 1, -221.75, -143)"/>
  <g id="ID0.8223371678031981">
    <path id="ID0.3929216577671468" fill="#666666" stroke="none" d="M 221 227.500 L 254 227.500 L 254 231 L 221 231 L 221 227.500 Z " transform="matrix(0.37202760577201843, -0.9282216429710388, 0.9282216429710388, 0.37202760577201843, -227.2, 178.25)"/>
    <path id="ID0.6158645171672106" fill="#7F7F7F" stroke="none" d="M 226 228 L 240.500 228 L 240.500 230.250 L 226 230.250 L 226 228 Z " transform="matrix(0.37202760577201843, -0.9282216429710388, 0.9282216429710388, 0.37202760577201843, -227.2, 178.25)"/>
    <path id="ID0.6918935501016676" fill="#7F7F7F" stroke="none" d="M 254.250 229 L 267.750 229 L 267.750 230 L 254.250 230 L 254.250 229 Z " transform="matrix(0.37202760577201843, -0.9282216429710388, 0.9282216429710388, 0.37202760577201843, -227.6, 178.65)"/>
    <path id="ID0.2535178721882403" fill="url(#grad_6)" stroke="none" d="M 215.250 227.250 L 224 227.250 L 224 231.250 L 215.250 231.250 L 215.250 227.250 Z " transform="matrix(0.37202760577201843, -0.9282216429710388, 0.9282216429710388, 0.37202760577201843, -227.2, 178.25)"/>
    <path id="ID0.5137050389312208" fill="#000000" stroke="none" d="M 225.500 230.750 L 252.500 230.750 L 252.500 231.250 L 225.500 231.250 L 225.500 230.750 Z " transform="matrix(0.37202760577201843, -0.9282216429710388, 0.9282216429710388, 0.37202760577201843, -227.2, 178.25)"/>
    <path id="ID0.3690052963793278" fill="#000000" stroke="none" d="M 225.500 227.250 L 252.250 227.250 L 252.250 227.750 L 225.500 227.750 L 225.500 227.250 Z " transform="matrix(0.37202760577201843, -0.9282216429710388, 0.9282216429710388, 0.37202760577201843, -227.2, 178.25)"/>
    <path id="ID0.7939222734421492" fill="#000000" stroke="none" d="M 266.250 228.500 L 269.250 228.500 L 269.250 230 L 266.250 230 L 266.250 228.500 Z " transform="matrix(0.37202760577201843, -0.9282216429710388, 0.9282216429710388, 0.37202760577201843, -227.2, 178.25)"/>
    <path id="ID0.15209347568452358" fill="#000000" stroke="none" d="M 265.250 229 L 267.500 229 L 267.500 229.500 L 265.250 229.500 L 265.250 229 Z " transform="matrix(0.37202760577201843, -0.9282216429710388, 0.9282216429710388, 0.37202760577201843, -227.2, 178.25)"/>
  </g>
  <path id="ID0.16361593129113317" fill="#FFD499" stroke="#FFD499" stroke-width="2" stroke-linecap="round" d="M 223.250 186.250 C 223.972 185.872 224.838 185.257 225.750 184.750 C 226.337 184.424 227.070 184.266 227.500 183.750 C 227.955 183.204 228.038 182.429 228.250 181.750 C 228.455 181.095 228.885 180.423 228.750 179.750 C 228.610 179.048 228.141 178.320 227.500 178 C 226.830 177.665 225.948 178.273 225.250 178 C 223.960 177.495 222.928 176.479 221.750 175.750 C 221.179 175.397 220.648 174.573 220 174.750 C 219.352 174.927 219.086 175.834 219 176.500 C 218.744 178.482 218.950 180.503 219 182.500 C 219.033 183.834 218.596 185.337 219.250 186.500 C 219.577 187.080 220.585 186.544 221.250 186.500 C 221.837 186.461 222.451 186.463 223 186.250 Z " transform="matrix(1, 0, 0, 1.1785714626312256, -214, -173.8)"/>
  <path id="ID0.15860436484217644" fill="#529E3A" stroke="none" d="M 214 171 L 221.250 171 L 221.250 192.750 L 214 192.750 L 214 171 Z " transform="matrix(1, 0, 0, 1, -214, -143)"/>
  <path id="ID0.8747231955640018" fill="none" stroke="#529E3A" stroke-width="2" stroke-linecap="round" d="M 335.250 171.250 L 335.550 171.550 " transform="matrix(1, 0, 0, 1, -214, -143)"/>
  <path id="ID0.5168315335176885" fill="#000000" stroke="#000000" stroke-width="2" stroke-linecap="round" d="M 238.350 186.650 C 238.230 185.521 238.988 184.125 239.100 182.650 C 239.157 181.891 238.968 181.112 238.700 180.400 C 238.377 179.542 237.393 178.916 237.350 178 C 237.316 177.275 237.790 176.299 238.500 176.150 C 239.188 176.005 239.665 176.945 240.200 177.400 C 240.783 177.896 241.573 178.287 241.850 179 C 242.093 179.626 241.331 180.385 241.600 181 C 241.978 181.863 242.875 182.399 243.600 183 C 244.247 183.536 245.441 183.600 245.700 184.400 C 245.929 185.108 245.152 185.809 244.700 186.400 C 244.270 186.962 243.792 187.648 243.100 187.800 C 241.765 188.093 240.348 187.870 239 187.650 C 238.661 187.595 238.193 187.370 238.200 187 Z " transform="matrix(1, 0, 0, 1, -214, -143)"/>
</svg>