<svg version="1.1" width="156" height="88" viewBox="0 2 156 88" xmlns="http://www.w3.org/2000/svg" xmlns:xlink="http://www.w3.org/1999/xlink">
  <defs>
    <radialGradient id="grad_1" cx="0.2446" cy="0.42219999999999996" r="0.98202">
      <stop offset="0" stop-color="#B3A443" stop-opacity="1"/>
      <stop offset="1" stop-color="#6CB484" stop-opacity="1"/>
    </radialGradient>
    <linearGradient id="grad_2" x2="1">
      <stop offset="0" stop-color="#B3A443" stop-opacity="1"/>
      <stop offset="1" stop-color="#6CB484" stop-opacity="1"/>
    </linearGradient>
    <radialGradient id="grad_3" cx="0.4" cy="0.107" r="1.1609">
      <stop offset="0" stop-color="#B3A443" stop-opacity="1"/>
      <stop offset="1" stop-color="#6CB484" stop-opacity="1"/>
    </radialGradient>
    <radialGradient id="grad_4" cx="0.4174" cy="0.030299999999999997" r="1.26061">
      <stop offset="0" stop-color="#B3A443" stop-opacity="1"/>
      <stop offset="1" stop-color="#6CB484" stop-opacity="1"/>
    </radialGradient>
    <linearGradient id="grad_5" x2="1">
      <stop offset="0" stop-color="#E5E5E5" stop-opacity="1"/>
      <stop offset="1" stop-color="#FFFFFF" stop-opacity="1"/>
    </linearGradient>
    <linearGradient id="grad_6" x2="1">
      <stop offset="0" stop-color="#000000" stop-opacity="1"/>
      <stop offset="1" stop-color="#666666" stop-opacity="1"/>
    </linearGradient>
    <linearGradient id="grad_7" x2="1">
      <stop offset="0" stop-color="#529E3A" stop-opacity="1"/>
      <stop offset="1" stop-color="#B3A443" stop-opacity="1"/>
    </linearGradient>
    <linearGradient id="grad_8" x2="1">
      <stop offset="0" stop-color="#529E3A" stop-opacity="1"/>
      <stop offset="1" stop-color="#B3A443" stop-opacity="1"/>
    </linearGradient>
    <linearGradient id="grad_9" x2="1">
      <stop offset="0" stop-color="#529E3A" stop-opacity="1"/>
      <stop offset="1" stop-color="#B3A443" stop-opacity="1"/>
    </linearGradient>
    <linearGradient id="grad_10" x2="1">
      <stop offset="0" stop-color="#529E3A" stop-opacity="1"/>
      <stop offset="1" stop-color="#B3A443" stop-opacity="1"/>
    </linearGradient>
  </defs>
  <!-- Exported by Scratch - http://scratch.mit.edu/ -->
  <g id="ID0.27842102153226733">
    <path id="ID0.9092812556773424" fill="none" stroke="#7F7F7F" stroke-width="2" stroke-linecap="round" d="M 210 201.750 L 211.500 205 Z " transform="matrix(-0.4745190143585205, -0.6878002285957336, -0.862687885761261, 0.2393600046634674, 318.05, 115)"/>
    <path id="ID0.07252327119931579" fill="url(#grad_1)" stroke="url(#grad_2)" stroke-width="2" stroke-linecap="round" d="M 209.750 198.500 L 211 204.250 L 214 208.500 L 217.250 211.750 L 219.750 214.500 L 223.750 218 L 227 217.500 L 230.500 216.250 L 233.250 213.750 L 233.500 210.500 L 232.250 205.750 L 226 198.750 L 221.750 196 L 216.750 195.250 L 213.500 195.250 L 210.750 196.500 L 209.750 198.500 Z " transform="matrix(-0.4745190143585205, -0.6878002285957336, -0.862687885761261, 0.2393600046634674, 318.05, 115)"/>
    <path id="ID0.9874879629351199" fill="none" stroke="#B3A443" stroke-width="2" stroke-linecap="round" d="M 220 215.250 L 224.750 214.500 L 231 211.500 " transform="matrix(-0.4745190143585205, -0.6878002285957336, -0.862687885761261, 0.2393600046634674, 318.05, 115)"/>
    <path id="ID0.7177255218848586" fill="none" stroke="#666666" stroke-width="2" stroke-linecap="round" d="M 226 199 L 227.500 202.500 Z " transform="matrix(-0.4745190143585205, -0.6878002285957336, -0.862687885761261, 0.2393600046634674, 318.05, 115)"/>
    <path id="ID0.7820489848963916" fill="none" stroke="#666666" stroke-width="2" stroke-linecap="round" d="M 227.500 202.500 L 226.500 205.500 Z " transform="matrix(-0.4745190143585205, -0.6878002285957336, -0.862687885761261, 0.2393600046634674, 318.05, 115)"/>
    <path id="ID0.07331947470083833" fill="none" stroke="#B3A443" stroke-width="2" stroke-linecap="round" d="M 226.500 205.500 L 223.250 208 L 228.250 204 Z " transform="matrix(-0.4745190143585205, -0.6878002285957336, -0.862687885761261, 0.2393600046634674, 318.05, 115)"/>
    <path id="ID0.5798701946623623" fill="none" stroke="#666666" stroke-width="2" stroke-linecap="round" d="M 228.250 204 L 231.500 203.250 Z " transform="matrix(-0.4745190143585205, -0.6878002285957336, -0.862687885761261, 0.2393600046634674, 318.05, 115)"/>
    <path id="ID0.7602546201087534" fill="none" stroke="#B3A443" stroke-width="2" stroke-linecap="round" d="M 231.500 203.250 L 226.250 200.500 " transform="matrix(-0.4745190143585205, -0.6878002285957336, -0.862687885761261, 0.2393600046634674, 318.05, 115)"/>
    <path id="ID0.25665075331926346" fill="none" stroke="#666666" stroke-width="2" stroke-linecap="round" d="M 210.750 202 L 212.500 199.250 Z " transform="matrix(-0.4745190143585205, -0.6878002285957336, -0.862687885761261, 0.2393600046634674, 318.05, 115)"/>
    <path id="ID0.17844787426292896" fill="none" stroke="#666666" stroke-width="2" stroke-linecap="round" d="M 212.500 199.250 L 217.250 196 " transform="matrix(-0.4745190143585205, -0.6878002285957336, -0.862687885761261, 0.2393600046634674, 318.05, 115)"/>
  </g>
  <g id="ID0.5469205393455923">
    <g id="ID0.14247039007022977">
      <path id="ID0.37114523351192474" fill="none" stroke="#7F7F7F" stroke-width="2" stroke-linecap="round" d="M 258.750 221.750 Z " transform="matrix(0.8359923362731934, 0.3210564851760864, -0.3585130572319031, 0.9335247278213501, -84.05, -225.1)"/>
      <path id="ID0.03274270240217447" fill="#6CB484" stroke="#6CB484" stroke-width="2" stroke-linecap="round" d="M 257.050 221 L 276.500 212.250 L 276.250 210.750 L 274.250 206 L 270.750 205.750 L 265.250 207 L 256.650 211.950 L 251.750 215.250 L 257.050 221 Z " transform="matrix(0.8359923362731934, 0.3210564851760864, -0.3585130572319031, 0.9335247278213501, -84.05, -225.1)"/>
      <path id="ID0.03397843614220619" fill="none" stroke="#666666" stroke-width="2" stroke-linecap="round" d="M 254.500 211.250 L 257 214.500 L 258 218.500 " transform="matrix(0.8359923362731934, 0.3210564851760864, -0.3585130572319031, 0.9335247278213501, -84.05, -225.1)"/>
      <path id="ID0.07423052238300443" fill="none" stroke="#666666" stroke-width="2" stroke-linecap="round" d="M 265.250 219 L 267.500 216.500 Z " transform="matrix(0.8359923362731934, 0.3210564851760864, -0.3585130572319031, 0.9335247278213501, -84.05, -225.1)"/>
      <path id="ID0.12485550902783871" fill="none" stroke="#B3A443" stroke-width="2" stroke-linecap="round" d="M 267.500 216.500 L 265.750 209.750 " transform="matrix(0.8359923362731934, 0.3210564851760864, -0.3585130572319031, 0.9335247278213501, -84.05, -225.1)"/>
      <path id="ID0.6831944277510047" fill="none" stroke="#666666" stroke-width="2" stroke-linecap="round" d="M 271.750 205 L 274 206.750 Z " transform="matrix(0.8359923362731934, 0.3210564851760864, -0.3585130572319031, 0.9335247278213501, -84.05, -225.1)"/>
      <path id="ID0.10246130172163248" fill="none" stroke="#666666" stroke-width="2" stroke-linecap="round" d="M 274 206.750 L 275.750 211 " transform="matrix(0.8359923362731934, 0.3210564851760864, -0.3585130572319031, 0.9335247278213501, -84.05, -225.1)"/>
    </g>
    <path id="ID0.1270430744625628" fill="#529E3A" stroke="#529E3A" stroke-width="2" stroke-linecap="round" d="M 241.250 181 C 240.868 179.724 240.166 179.463 240.250 179 C 240.387 178.245 241.304 177.875 241.750 177.250 C 242.140 176.704 242.213 175.903 242.750 175.500 C 243.299 175.088 244.070 174.909 244.750 175 C 245.415 175.089 246.046 175.505 246.500 176 C 247.003 176.549 246.995 177.453 247.500 178 C 248.033 178.577 249.310 178.488 249.500 179.250 C 249.674 179.945 248.713 180.453 248.250 181 C 247.794 181.539 247.415 182.262 246.750 182.500 C 246.118 182.726 245.361 182.528 244.750 182.250 C 243.489 181.677 242.373 180.811 241.250 180 Z " transform="matrix(0.38909947872161865, 0.9211958050727844, -0.9211958050727844, 0.38909947872161865, 142.75, -236.2)"/>
    <path id="ID0.8104176558554173" fill="none" stroke="#B3A443" stroke-width="2" stroke-linecap="round" d="M 226.250 194.250 L 228.250 197 Z " transform="matrix(0.38909947872161865, 0.9211958050727844, -0.9211958050727844, 0.38909947872161865, 149.15, -235.85)"/>
  </g>
  <g id="ID0.35858932277187705">
    <g id="ID0.14247039007022977">
      <path id="ID0.37114523351192474" fill="none" stroke="#7F7F7F" stroke-width="2" stroke-linecap="round" d="M 255.250 223.250 L 258.750 221.750 Z " transform="matrix(-0.25012484192848206, 0.8598825335502625, 0.960202157497406, 0.2793060541152954, -120.9, -269.8)"/>
      <path id="ID0.03274270240217447" fill="#6CB484" stroke="#6CB484" stroke-width="2" stroke-linecap="round" d="M 258.750 221.750 L 275.950 210.400 L 275.450 210.100 L 274.250 206 L 271.050 206.900 L 266.150 208.150 L 256.900 212.550 L 251.750 215.250 L 256.250 222.500 Z " transform="matrix(-0.25012484192848206, 0.8598825335502625, 0.960202157497406, 0.2793060541152954, -120.9, -269.8)"/>
      <path id="ID0.47358463890850544" fill="none" stroke="#B3A443" stroke-width="2" stroke-linecap="round" d="M 256.250 222.500 L 260.500 221.500 " transform="matrix(-0.25012484192848206, 0.8598825335502625, 0.960202157497406, 0.2793060541152954, -120.9, -269.8)"/>
      <path id="ID0.07423052238300443" fill="none" stroke="#666666" stroke-width="2" stroke-linecap="round" d="M 267.500 216.500 Z " transform="matrix(-0.25012484192848206, 0.8598825335502625, 0.960202157497406, 0.2793060541152954, -120.9, -269.8)"/>
      <path id="ID0.12485550902783871" fill="none" stroke="#B3A443" stroke-width="2" stroke-linecap="round" d="M 267.500 216.500 L 265.750 209.750 " transform="matrix(-0.25012484192848206, 0.8598825335502625, 0.960202157497406, 0.2793060541152954, -120.9, -269.8)"/>
      <path id="ID0.6831944277510047" fill="none" stroke="#666666" stroke-width="2" stroke-linecap="round" d="M 271.750 205 L 274 206.750 Z " transform="matrix(-0.25012484192848206, 0.8598825335502625, 0.960202157497406, 0.2793060541152954, -120.9, -269.8)"/>
    </g>
    <path id="ID0.1270430744625628" fill="#529E3A" stroke="#529E3A" stroke-width="2" stroke-linecap="round" d="M 241.250 181 C 240.868 179.724 240.166 179.463 240.250 179 C 240.387 178.245 241.304 177.875 241.750 177.250 C 242.140 176.704 242.213 175.903 242.750 175.500 C 243.299 175.088 244.070 174.909 244.750 175 C 245.415 175.089 246.046 175.505 246.500 176 C 247.003 176.549 246.995 177.453 247.500 178 C 248.033 178.577 249.310 178.488 249.500 179.250 C 249.674 179.945 248.713 180.453 248.250 181 C 247.794 181.539 247.415 182.262 246.750 182.500 C 246.118 182.726 245.361 182.528 244.750 182.250 C 243.489 181.677 242.373 180.811 241.250 180 Z " transform="matrix(0.2555357813835144, 0.9667995572090149, 0.9667995572090149, -0.2555357813835144, -229.3, -164.65)"/>
    <path id="ID0.5488511263392866" fill="none" stroke="#529E3A" stroke-width="2" stroke-linecap="round" d="M 230 164.750 L 233 162.500 Z " transform="matrix(-0.42338505387306213, 0.9059498310089111, -0.9059498310089111, -0.42338505387306213, 276.2, -132.85)"/>
  </g>
  <g id="ID0.27842102153226733">
    <path id="ID0.9092812556773424" fill="none" stroke="#7F7F7F" stroke-width="2" stroke-linecap="round" d="M 210 201.750 L 211.500 205 Z " transform="matrix(0.8355993032455444, 0.0033406042493879795, 0.2894926369190216, 0.8471822142601013, -200.8, -121.95)"/>
    <path id="ID0.07252327119931579" fill="url(#grad_3)" stroke="url(#grad_4)" stroke-width="2" stroke-linecap="round" d="M 209.750 198.500 L 211 204.250 L 214 208.500 L 217.250 211.750 L 219.750 214.500 L 223.750 218 L 227 217.500 L 230.500 216.250 L 233.250 213.750 L 233.500 210.500 L 232.250 205.750 L 223.350 202.850 L 221.750 196 L 216.750 195.250 L 213.500 195.250 L 210.750 196.500 L 209.750 198.500 Z " transform="matrix(0.8355993032455444, 0.0033406042493879795, 0.2894926369190216, 0.8471822142601013, -200.8, -121.95)"/>
    <path id="ID0.9874879629351199" fill="none" stroke="#B3A443" stroke-width="2" stroke-linecap="round" d="M 220 215.250 L 224.750 214.500 L 231 211.500 " transform="matrix(0.8355993032455444, 0.0033406042493879795, 0.2894926369190216, 0.8471822142601013, -200.8, -121.95)"/>
    <path id="ID0.7177255218848586" fill="none" stroke="#666666" stroke-width="2" stroke-linecap="round" d="M 227.500 202.500 Z " transform="matrix(0.8355993032455444, 0.0033406042493879795, 0.2894926369190216, 0.8471822142601013, -200.8, -121.95)"/>
    <path id="ID0.7820489848963916" fill="none" stroke="#666666" stroke-width="2" stroke-linecap="round" d="M 227.500 202.500 L 226.500 205.500 Z " transform="matrix(0.8355993032455444, 0.0033406042493879795, 0.2894926369190216, 0.8471822142601013, -200.8, -121.95)"/>
    <path id="ID0.07331947470083833" fill="none" stroke="#B3A443" stroke-width="2" stroke-linecap="round" d="M 226.500 205.500 L 223.250 208 L 228.250 204 Z " transform="matrix(0.8355993032455444, 0.0033406042493879795, 0.2894926369190216, 0.8471822142601013, -200.8, -121.95)"/>
    <path id="ID0.5798701946623623" fill="none" stroke="#B3A443" stroke-width="2" stroke-linecap="round" d="M 228.250 204 L 231.500 203.250 Z " transform="matrix(0.8355993032455444, 0.0033406042493879795, 0.2894926369190216, 0.8471822142601013, -200.8, -121.95)"/>
    <path id="ID0.25665075331926346" fill="none" stroke="#B3A443" stroke-width="2" stroke-linecap="round" d="M 210.750 202 L 212.500 199.250 Z " transform="matrix(0.8355993032455444, 0.0033406042493879795, 0.2894926369190216, 0.8471822142601013, -200.8, -121.95)"/>
    <path id="ID0.17844787426292896" fill="none" stroke="#B3A443" stroke-width="2" stroke-linecap="round" d="M 212.500 199.250 L 217.250 196 " transform="matrix(0.8355993032455444, 0.0033406042493879795, 0.2894926369190216, 0.8471822142601013, -200.8, -121.95)"/>
  </g>
  <path id="ID0.1140802027657628" fill="url(#grad_5)" stroke="none" d="M 204 171.750 L 207.500 171.750 L 207.500 191.250 L 204 191.250 L 204 171.750 Z " transform="matrix(1, 0, 0, 1, -167.5, -147.25)"/>
  <path id="ID0.7656234223395586" fill="#7F7F7F" stroke="#B3A443" stroke-width="2" stroke-linecap="round" d="M 223.750 181.500 L 223.250 170 L 224 156.750 L 225.250 154 L 229.250 153.250 L 238.250 154 L 239.500 156.750 L 241.750 165.750 L 241.250 176.250 L 238.250 186 L 226.250 186.750 L 224 185 Z " transform="matrix(1, 0, 0, 1, -187.75, -137.25)"/>
  <path id="ID0.053199516609311104" fill="none" stroke="#7F7F7F" stroke-width="2" stroke-linecap="round" d="M 224 185 L 224 183.250 Z " transform="matrix(1, 0, 0, 1, -172.5, -144)"/>
  <path id="ID0.6010205093771219" fill="#B3A443" stroke="#B3A443" stroke-width="2" stroke-linecap="round" d="M 217.750 192.750 L 222 198.950 L 226.500 199.950 L 228.500 198.950 L 231.500 198 L 230 190 L 234.750 187 L 232.750 178.750 L 232.250 171 L 230 160.250 L 226.750 151.250 L 224 148.750 L 220.500 149.450 L 216.750 151.700 L 216 160.750 L 213.500 168.500 L 213.500 183 L 214.750 191 Z " transform="matrix(0.9294871687889099, 0, 0, 0.9294871687889099, -165.6, -130.35)"/>
  <path id="ID0.8755844477564096" fill="none" stroke="#B3A443" stroke-width="2" stroke-linecap="round" d="M 214.750 191 L 218.500 194.250 " transform="matrix(1, 0, 0, 1, -172.5, -144)"/>
  <path id="ID0.79099415615201" fill="none" stroke="#B3A443" stroke-width="2" stroke-linecap="round" d="M 208.750 160.750 L 209.250 162.500 Z " transform="matrix(1, 0, 0, 1, -167.5, -147.25)"/>
  <path id="ID0.4685869007371366" fill="none" stroke="#B3A443" stroke-width="2" stroke-linecap="round" d="M 215.250 195 L 222.250 194.250 " transform="matrix(1, 0, 0, 1, -169, -146.75)"/>
  <path id="ID0.5411469885148108" fill="none" stroke="#E5E5E5" stroke-width="2" stroke-linecap="round" d="M 210.250 199.250 L 211.250 202.250 Z " transform="matrix(1, 0, 0, 1, -169, -146.75)"/>
  <path id="ID0.7159544094465673" fill="#B3A443" stroke="#B3A443" stroke-width="2" stroke-linecap="round" d="M 234.250 164.500 C 234.167 165.500 236.579 165.789 237.500 166.250 C 238.132 166.566 238.500 167.250 239 167.750 C 239.500 168.250 239.981 168.771 240.500 169.250 C 241.064 169.771 241.611 170.324 242.250 170.750 C 242.870 171.163 243.790 171.164 244.250 171.750 C 244.787 172.433 244.821 173.399 245 174.250 C 245.155 174.988 245.132 175.755 245.250 176.500 C 245.382 177.339 245.656 178.156 245.750 179 C 245.824 179.662 245.722 180.335 245.750 181 C 245.806 182.333 245.894 183.670 246 185 C 246.060 185.751 246.423 186.516 246.250 187.250 C 246.070 188.015 245.423 188.588 245 189.250 C 244.091 190.670 243.506 192.376 242.250 193.500 C 241.754 193.944 240.916 193.500 240.250 193.500 C 239.584 193.500 238.692 193.998 238.250 193.500 C 237.752 192.940 238.250 191.999 238.250 191.250 C 238.250 189.668 238.407 188.074 238.250 186.500 C 238.156 185.556 237.844 184.635 237.500 183.750 C 237.257 183.124 236.670 182.698 236.500 182 C 235.819 179.208 235.406 176.345 235 173.500 C 234.898 172.789 234.922 172.161 235 171.500 C 235.090 170.738 235.436 170.015 235.500 169.250 C 235.604 168.006 235.822 166.707 235.500 165.500 L 234.500 165.500 Z " transform="matrix(2.348754405975342, 0, 0, 1, -504.5, -147.25)"/>
  <path id="ID0.8448817078024149" fill="none" stroke="#000000" stroke-width="2" stroke-linecap="round" d="M 228.250 168 L 228.550 168.300 " transform="matrix(1, 0, 0, 1, -190.75, -147)"/>
  <path id="ID0.931194017175585" fill="none" stroke="#000000" stroke-width="2" stroke-linecap="round" d="M 226.250 166.750 L 226.550 167.050 " transform="matrix(1, 0, 0, 1, -190.75, -147)"/>
  <g id="ID0.8223371678031981">
    <path id="ID0.3929216577671468" fill="#666666" stroke="none" d="M 221 227.500 L 254 227.500 L 254 231 L 221 231 L 221 227.500 Z " transform="matrix(0.6727951765060425, 0.7398287057876587, -0.7398287057876587, 0.6727951765060425, 110.7, -263.9)"/>
    <path id="ID0.6158645171672106" fill="#7F7F7F" stroke="none" d="M 226 228 L 240.500 228 L 240.500 230.250 L 226 230.250 L 226 228 Z " transform="matrix(0.6727951765060425, 0.7398287057876587, -0.7398287057876587, 0.6727951765060425, 110.7, -263.9)"/>
    <path id="ID0.6918935501016676" fill="#7F7F7F" stroke="none" d="M 254.250 229 L 267.750 229 L 267.750 230 L 254.250 230 L 254.250 229 Z " transform="matrix(0.6727951765060425, 0.7398287057876587, -0.7398287057876587, 0.6727951765060425, 110.5, -264.5)"/>
    <path id="ID0.2535178721882403" fill="url(#grad_6)" stroke="none" d="M 215.250 227.250 L 224 227.250 L 224 231.250 L 215.250 231.250 L 215.250 227.250 Z " transform="matrix(0.6727951765060425, 0.7398287057876587, -0.7398287057876587, 0.6727951765060425, 110.7, -263.9)"/>
    <path id="ID0.5137050389312208" fill="#000000" stroke="none" d="M 225.500 230.750 L 252.500 230.750 L 252.500 231.250 L 225.500 231.250 L 225.500 230.750 Z " transform="matrix(0.6727951765060425, 0.7398287057876587, -0.7398287057876587, 0.6727951765060425, 110.7, -263.9)"/>
    <path id="ID0.3690052963793278" fill="#000000" stroke="none" d="M 225.500 227.250 L 252.250 227.250 L 252.250 227.750 L 225.500 227.750 L 225.500 227.250 Z " transform="matrix(0.6727951765060425, 0.7398287057876587, -0.7398287057876587, 0.6727951765060425, 110.7, -263.9)"/>
    <path id="ID0.7939222734421492" fill="#000000" stroke="none" d="M 266.250 228.500 L 269.250 228.500 L 269.250 230 L 266.250 230 L 266.250 228.500 Z " transform="matrix(0.6727951765060425, 0.7398287057876587, -0.7398287057876587, 0.6727951765060425, 110.7, -263.9)"/>
    <path id="ID0.15209347568452358" fill="#000000" stroke="none" d="M 265.250 229 L 267.500 229 L 267.500 229.500 L 265.250 229.500 L 265.250 229 Z " transform="matrix(0.6727951765060425, 0.7398287057876587, -0.7398287057876587, 0.6727951765060425, 110.7, -263.9)"/>
  </g>
  <path id="ID0.8747231955640018" fill="none" stroke="#529E3A" stroke-width="2" stroke-linecap="round" d="M 335.250 171.250 L 335.550 171.550 " transform="matrix(1, 0, 0, 1, -183, -147)"/>
  <path id="ID0.022668764926493168" fill="#FFD499" stroke="#FFD499" stroke-width="2" stroke-linecap="round" d="M 214.750 184.250 C 215.651 183.503 216.868 183.573 218 183.250 C 218.645 183.066 219.142 182.534 219.750 182.250 C 220.395 181.949 221.152 181.885 221.750 181.500 C 222.344 181.118 223.143 180.698 223.250 180 C 223.352 179.337 222.595 178.826 222.250 178.250 C 221.846 177.577 221.585 176.774 221 176.250 C 219.967 175.326 218.747 174.603 217.500 174 C 216.149 173.346 214.635 173.077 213.250 172.500 C 212.630 172.242 212.074 171.213 211.500 171.500 C 210.824 171.838 210.973 172.992 210.750 173.750 C 210.556 174.409 210.335 175.069 210.250 175.750 C 210.167 176.411 210.250 177.084 210.250 177.750 C 210.250 179.165 210.250 180.585 210.250 182 C 210.250 182.749 209.572 183.931 210.250 184.250 C 211.533 184.854 213.092 184.166 214.500 184 C 214.852 183.959 214.212 183.812 214.500 183.750 Z " transform="matrix(1, 0, 0, 1, -183, -147)"/>
  <path id="ID0.7834915812127292" fill="#529E3A" stroke="none" d="M 204.250 168.750 L 211.250 168.750 L 211.250 187 L 204.250 187 L 204.250 168.750 Z " transform="matrix(1, 0, 0, 1, -183, -147)"/>
  <path id="ID0.39379491144791245" fill="#529E3A" stroke="#529E3A" stroke-width="2" stroke-linecap="round" d="M 254.500 171.250 C 258.126 170.946 262.506 171.360 266.750 171 C 267.811 170.910 268.080 170.792 268.750 170.750 C 269.415 170.708 270.089 170.667 270.750 170.750 C 271.431 170.835 272.078 171.110 272.750 171.250 C 274.077 171.526 275.488 171.506 276.750 172 C 277.465 172.280 278.157 172.814 278.500 173.500 C 279.196 174.891 279.879 176.450 279.750 178 C 279.686 178.765 278.677 179.139 278 179.500 C 277.394 179.823 276.682 179.924 276 180 C 275.173 180.092 274.331 179.954 273.500 180 C 272.830 180.037 272.170 180.208 271.500 180.250 C 270.835 180.292 270.166 180.250 269.500 180.250 C 268.751 180.250 267.998 180.292 267.250 180.250 C 266.497 180.208 265.753 180.029 265 180 C 263.586 179.946 262.156 180.162 260.750 180 C 259.965 179.909 259.126 179.732 258.500 179.250 C 257.968 178.841 257.816 178.092 257.500 177.500 C 257.150 176.843 256.933 176.106 256.500 175.500 C 256.089 174.925 255.411 174.575 255 174 C 254.567 173.394 252.968 172.263 254 172 Z " transform="matrix(0.943300187587738, -0.33194082975387573, 0.33194082975387573, 0.943300187587738, -225.8, -51.7)"/>
  <path id="ID0.39379491144791245" fill="#529E3A" stroke="#529E3A" stroke-width="2" stroke-linecap="round" d="M 254.500 171.250 C 258.126 170.946 262.506 171.360 266.750 171 C 267.811 170.910 268.080 170.792 268.750 170.750 C 269.415 170.708 270.089 170.667 270.750 170.750 C 271.431 170.835 272.078 171.110 272.750 171.250 C 274.077 171.526 275.488 171.506 276.750 172 C 277.465 172.280 278.157 172.814 278.500 173.500 C 279.196 174.891 279.879 176.450 279.750 178 C 279.686 178.765 278.677 179.139 278 179.500 C 277.394 179.823 276.682 179.924 276 180 C 275.173 180.092 274.331 179.954 273.500 180 C 272.830 180.037 272.170 180.208 271.500 180.250 C 270.835 180.292 270.166 180.250 269.500 180.250 C 268.751 180.250 267.998 180.292 267.250 180.250 C 266.497 180.208 265.753 180.029 265 180 C 263.586 179.946 262.156 180.162 260.750 180 C 259.965 179.909 259.126 179.732 258.500 179.250 C 257.968 178.841 257.816 178.092 257.500 177.500 C 257.150 176.843 256.933 176.106 256.500 175.500 C 256.089 174.925 255.411 174.575 255 174 C 254.567 173.394 252.968 172.263 254 172 Z " transform="matrix(0.9888628125190735, -0.14882995188236237, -0.14882995188236237, -0.9888628125190735, -153, 251.9)"/>
  <path id="ID0.8480867738835514" fill="#529E3A" stroke="#529E3A" stroke-width="2" stroke-linecap="round" d="M 255.750 174.500 C 255.352 177.165 255.734 179.844 256 182.500 C 256.068 183.183 256.343 183.832 256.500 184.500 C 256.676 185.247 257 185.982 257 186.750 C 257 188.175 256.190 190.503 256.500 191 C 256.750 191.400 257.579 189.421 258.250 188.750 C 258.756 188.244 259.417 187.916 260 187.500 C 260.583 187.084 261.342 186.839 261.750 186.250 C 262.141 185.686 262.341 184.930 262.250 184.250 C 262.161 183.585 261.450 183.141 261.250 182.500 C 261.025 181.780 261.042 181.003 261 180.250 C 260.958 179.502 261.335 178.670 261 178 C 260.366 176.732 259.252 175.752 258.250 174.750 C 257.744 174.244 257.213 173.565 256.500 173.500 C 256.031 173.457 255.537 173.834 255.500 174.500 Z " transform="matrix(1, 0, 0, 1, -183, -147)"/>
  <path id="ID0.7732762987725437" fill="none" stroke="#529E3A" stroke-width="2" stroke-linecap="round" d="M 337.500 168.250 L 337.800 168.550 " transform="matrix(1, 0, 0, 1, -183, -147)"/>
  <path id="ID0.058251312002539635" fill="url(#grad_7)" stroke="url(#grad_8)" stroke-width="2" stroke-linecap="round" d="M 280 183.250 C 281.749 182.846 283.753 183.318 285.750 183.500 C 286.501 183.568 287.246 183.728 288 183.750 C 290.164 183.812 292.339 183.627 294.500 183.750 C 295.266 183.794 296.031 183.981 296.750 184.250 C 297.378 184.486 298.070 184.734 298.500 185.250 C 298.955 185.796 299 186.584 299.250 187.250 C 299.500 187.916 300.047 188.540 300 189.250 C 299.955 189.920 299.516 190.570 299 191 C 298.454 191.455 297.699 191.619 297 191.750 C 296.345 191.873 295.665 191.708 295 191.750 C 294.330 191.792 293.670 191.958 293 192 C 292.335 192.042 291.662 191.926 291 192 C 290.156 192.094 289.346 192.435 288.500 192.500 C 287.172 192.602 285.832 192.500 284.500 192.500 C 283.834 192.500 283.166 192.500 282.500 192.500 C 281.751 192.500 280.994 192.588 280.250 192.500 C 279.568 192.420 278.490 192.600 278.250 192 C 277.990 191.350 278.952 190.682 279.250 190 C 279.535 189.348 279.869 188.699 280 188 C 280.123 187.345 280.123 186.655 280 186 C 279.869 185.301 279.309 184.709 279.250 184 C 279.219 183.629 279.250 183.038 279.750 183 Z " transform="matrix(0.9018969535827637, 0.43195128440856934, -0.43195128440856934, 0.9018969535827637, -75.55, -253.6)"/>
  <path id="ID0.47110610688105226" fill="url(#grad_9)" stroke="url(#grad_10)" stroke-width="2" stroke-linecap="round" d="M 278.500 179.750 C 282.329 179.339 285.923 179.388 289.500 179.250 C 290.394 179.216 291.002 178.923 291.750 178.750 C 293.167 178.423 294.583 178.077 296 177.750 C 296.748 177.577 297.604 177.665 298.250 177.250 C 298.852 176.863 299.500 176.216 299.500 175.500 C 299.500 174.643 298.716 173.970 298.250 173.250 C 297.798 172.551 297.339 171.839 296.750 171.250 C 296.244 170.744 295.687 170.202 295 170 C 294.201 169.765 293.416 170 292.500 170 C 288.837 170 285.160 169.859 281.500 170 C 280.585 170.035 280.184 170.443 279.500 170.500 C 278.173 170.611 276.610 169.786 275.500 170.500 C 274.860 170.911 275.457 172.207 276 172.750 C 276.543 173.293 277.573 172.889 278.250 173.250 C 278.873 173.582 279.434 174.118 279.750 174.750 C 280.050 175.350 280.039 176.080 280 176.750 C 279.955 177.516 279.843 178.314 279.500 179 C 279.382 179.235 277.855 179.228 278.750 179.250 Z " transform="matrix(0.9377990961074829, 0.3471783399581909, -0.3471783399581909, 0.9377990961074829, -104.9, -237.15)"/>
  <path id="ID0.7027477188967168" fill="#995900" stroke="none" d="M 296.250 183.250 L 304 183.250 L 304 191.750 L 296.250 191.750 L 296.250 183.250 Z " transform="matrix(0.9650812745094299, 0.26195064187049866, -0.26195064187049866, 0.9650812745094299, -124.6, -212.8)"/>
  <path id="ID0.7027477188967168" fill="#995900" stroke="none" d="M 296.250 183.250 L 304 183.250 L 304 191.750 L 296.250 191.750 L 296.250 183.250 Z " transform="matrix(0.9400284290313721, 0.34109604358673096, -0.34109604358673096, 0.9400284290313721, -102.1, -249.1)"/>
  <path id="ID0.14696730114519596" fill="#000000" stroke="#000000" stroke-width="2" stroke-linecap="round" d="M 235.600 186.150 C 234.985 186.392 232.966 186.923 231.500 186 C 230.653 185.466 231.972 183.963 231.700 183 C 231.501 182.297 230.740 181.891 230.200 181.400 C 229.455 180.723 228.318 180.391 227.850 179.500 C 227.523 178.876 227.653 177.944 228.100 177.400 C 228.691 176.681 229.757 176.544 230.600 176.150 C 231.256 175.844 231.893 175.454 232.600 175.300 C 233.447 175.116 234.337 175.065 235.200 175.150 C 236.386 175.267 237.547 175.599 238.700 175.900 C 240.096 176.265 242.573 176.388 242.850 177.150 C 243.073 177.763 240.691 178.043 239.700 178.650 C 239.127 179.001 238.594 179.455 238.200 180 C 237.794 180.562 237.117 181.247 237.350 181.900 C 237.580 182.545 238.738 182.294 239.200 182.800 C 239.684 183.330 240.429 184.225 240 184.800 C 239.290 185.752 237.876 185.984 236.700 186.150 Z " transform="matrix(1, 0, 0, 1, -183, -147)"/>
</svg>